<?xml version="1.0" encoding="UTF-8" standalone="no"?>
<!-- Created with Inkscape (http://www.inkscape.org/) -->
<svg
   xmlns:svg="http://www.w3.org/2000/svg"
   xmlns="http://www.w3.org/2000/svg"
   version="1.0"
   width="600.00012"
   height="199.99998"
   id="PaludisLogo">
  <defs
     id="defs3" />
  <g
     transform="translate(3.565661e-6,-852.3622)"
     style="opacity:1;display:inline"
     id="Logo">
    <g
       id="Seaweed">
      <path
         d="M 49.948456,928.78571 C 45.720411,926.22219 40.995403,921.38521 39.286379,917.87097 C 38.733073,916.73321 38.270233,915.12407 38.028464,913.49765 C 37.855418,912.33353 37.849484,911.90434 37.982343,910.16153 C 38.066202,909.06146 38.293069,907.01192 38.486489,905.60698 C 38.96197,902.15329 39.030102,901.00983 38.863043,899.28747 C 38.357898,894.07956 37.640699,891.90804 34.831636,887.08129 C 32.036612,882.27866 31.437974,880.63071 31.434424,877.72929 C 31.431345,875.21346 31.79535,873.84711 33.436627,870.21373 C 34.107803,868.72791 34.301443,868.172 34.301443,867.73099 L 34.301443,867.16275 L 34.732443,867.16275 C 35.155979,867.16275 35.163443,867.1715 35.163443,867.66825 C 35.163443,868.28958 35.247343,868.43584 37.869251,872.38529 C 40.619416,876.52795 41.559602,878.20204 42.985005,881.49438 C 44.148719,884.18228 44.76293,886.17123 45.272903,888.90311 C 46.14405,893.56974 46.180623,897.10437 45.431874,904.2671 C 45.171555,906.75738 45.126877,907.66389 45.183447,909.30747 C 45.307773,912.91946 45.727305,914.71076 47.114185,917.55119 C 48.573564,920.5401 50.737339,923.36155 54.086093,926.64217 C 55.192488,927.72607 57.038587,929.52719 57.038587,929.59151 C 57.038587,929.72234 55.640073,929.55364 53.254171,929.80837 C 50.868712,930.06306 50.997377,929.42169 49.948456,928.78571 z M 63.000298,929.15253 C 62.360495,929.06173 61.799304,928.97279 61.753207,928.9549 C 61.62379,928.90468 57.974775,924.46534 57.801565,924.14739 C 57.700714,923.96226 57.690928,923.8378 57.772915,923.78302 C 57.841405,923.73727 58.586936,923.14995 59.429652,922.47789 C 60.272369,921.80582 61.765371,920.66251 62.747435,919.93718 C 67.221903,916.63247 69.392658,914.37051 70.756212,911.59191 C 71.697377,909.67403 71.799214,909.18095 71.792398,906.57474 C 71.78354,903.1856 71.489987,901.61503 69.579099,894.73292 C 67.301746,886.53101 66.254383,881.64801 65.766075,876.95591 C 65.532378,874.71036 65.501174,870.06839 65.701875,867.40566 C 66.015038,863.25084 66.482031,860.58078 67.496847,857.14275 C 67.812329,856.07394 68.062442,855.02185 68.052655,854.80474 C 68.037428,854.46691 68.076376,854.41001 68.322914,854.41001 C 68.605074,854.41001 68.615252,854.45162 68.820685,856.44438 C 68.936029,857.56329 69.085147,859.24391 69.152052,860.17911 C 69.577086,866.12024 69.957474,868.52937 71.432856,874.62419 C 72.813177,880.3263 74.613161,887.12165 76.798895,894.88221 C 78.540329,901.06527 78.898074,902.69033 79.250469,906.0186 C 79.798065,911.19048 77.587787,916.28961 72.060144,922.60674 C 70.272731,924.64944 65.899156,928.90915 65.395005,929.09834 C 64.872807,929.29431 64.119391,929.31136 63.000298,929.15253 z M 57.897388,929.06049 C 57.435839,929.01907 57.342597,928.59928 56.131792,927.42812 C 54.881194,926.21848 54.768716,926.07031 54.500071,925.27874 C 54.158549,924.27243 53.637492,923.22754 52.295594,920.85806 C 50.891286,918.37838 50.186867,916.32227 50.186867,914.70295 C 50.186867,913.22711 50.785029,910.59514 51.537296,908.76093 C 51.729072,908.29332 52.608446,906.39805 53.49146,904.54921 C 55.934412,899.43418 56.791403,897.10096 57.272928,894.25391 C 57.998812,889.96207 56.013165,882.25283 53.235713,878.57947 C 52.957919,878.21207 51.782071,876.96868 50.622718,875.81638 C 48.765596,873.97056 48.46776,873.72129 48.119406,873.72129 C 47.762173,873.72129 47.724011,873.68613 47.724011,873.35693 C 47.724011,872.99624 47.730852,872.99256 48.401296,872.99256 C 48.873281,872.99256 49.078582,873.0402 49.078582,873.14971 C 49.078582,873.24015 49.535982,873.45255 50.156081,873.65007 C 54.824863,875.13719 60.328454,877.86808 61.967696,879.51101 C 62.712917,880.25791 63.307318,881.38041 63.50032,882.40529 C 63.722397,883.58457 63.570952,886.16908 63.180061,887.87074 C 62.702602,889.94927 62.276343,891.34489 59.989887,898.31583 C 57.750686,905.1427 57.08714,906.88986 55.252887,910.78867 C 53.4227,914.67884 53.202878,915.25737 53.06983,916.53402 C 52.849068,918.6523 54.572543,921.67813 59.199903,927.29635 C 59.728747,927.93843 60.721474,928.81843 60.721474,928.92784 C 60.721474,929.09457 60.116462,928.99078 59.419827,928.97299 C 58.96266,928.96132 58.178995,929.08575 57.897388,929.06049 z M 68.993788,928.54842 C 68.993788,928.14971 71.054846,926.27605 75.154227,922.58041 C 78.173631,919.85839 79.477769,918.50908 80.469956,917.08056 C 82.137517,914.67965 82.684942,912.97392 82.69176,910.15765 C 82.698011,907.57327 82.281779,905.42795 80.724141,900.0162 C 78.748688,893.15283 78.003971,890.0469 77.564461,886.83838 C 77.280711,884.76695 77.027017,878.86744 77.288212,877.24347 C 78.004885,872.78762 80.281926,868.06578 82.910697,864.85096 C 83.878094,863.66789 85.861115,861.78786 87.634242,860.37276 C 88.406543,859.7564 89.232376,859.09348 89.469427,858.89962 C 89.706478,858.70575 89.997401,858.54541 90.115925,858.5433 C 90.453828,858.53729 90.374688,858.97293 89.980319,859.28976 C 89.263654,859.86553 85.497846,866.44459 84.790018,868.35749 C 83.910211,870.73517 83.693472,873.3955 84.168965,875.98049 C 84.305374,876.72204 84.858454,879.07219 85.398033,881.20303 C 86.478114,885.46834 87.466576,889.78292 87.857734,891.93947 C 89.443322,900.68121 89.288518,910.7956 87.483528,916.3893 C 86.950634,918.04075 85.698905,920.45965 84.721796,921.72621 C 82.879102,924.11475 79.459082,927.67379 78.41385,927.46793 C 78.199088,927.42563 76.105808,927.0732 73.875021,927.51665 C 71.833905,927.9224 70.046796,928.25438 69.903664,928.25438 C 69.760538,928.25438 68.993788,928.64189 68.993788,928.54842 z "
         style="fill:#7fb75a;fill-opacity:1"
         id="SeaweedMain" />
      <path
         d="M 49.609475,929.73392 C 45.79964,927.47706 41.41407,924.01154 38.95981,920.42063 C 37.832126,918.77067 37.328748,917.58647 36.869315,915.31072 C 36.64243,914.18687 36.458811,914.07243 36.43974,911.72781 C 36.422075,909.55615 36.638994,908.77135 36.975085,906.44454 C 37.48371,902.92323 37.670316,900.66892 37.3937,898.39905 C 36.850064,893.93807 36.090828,892.1604 33.288143,887.35028 C 30.931258,883.30527 30.365489,881.60311 30.076991,879.38435 C 29.808465,877.31921 30.25171,874.7226 31.261638,872.01342 C 31.586901,871.14089 32.310125,869.54704 32.714351,868.57844 C 33.118578,867.60984 33.745866,866.49482 33.953443,866.06245 C 34.406805,865.11808 35.15559,865.08948 36.307793,867.31685 C 36.743124,868.15841 38.077184,870.09677 39.117488,871.70068 C 42.183494,876.42777 43.91989,879.29855 45.3495,883.09225 C 46.6427,886.52398 47.435322,891.41015 47.438587,895.81727 C 47.440515,898.41842 47.370394,899.50123 46.914937,904.10565 C 46.537083,907.92554 46.59592,911.63986 47.279692,913.94347 C 47.759505,915.55995 48.553798,917.62826 49.731786,919.48839 C 50.193337,920.21723 51.690365,922.6653 52.299881,923.32672 C 52.905008,923.98337 52.506663,923.83562 51.183881,921.50204 C 49.238709,918.07048 48.728312,916.21315 49.062273,913.78151 C 49.410421,911.24658 49.343222,910.04755 51.535992,905.4729 C 54.069779,900.1868 55.067847,898.27837 55.653492,895.56951 C 56.632385,891.04171 55.557089,883.65781 52.110525,879.67579 C 51.352443,878.79993 49.109927,875.89213 47.242358,874.24616 C 46.61587,873.69401 46.390044,873.11146 46.39204,873.06616 C 46.394035,873.02087 46.68496,872.77598 47.03854,872.52196 C 47.78802,871.98352 47.952452,871.57628 50.05062,872.23122 C 52.911402,873.1242 56.983647,874.60848 59.351879,875.89161 C 62.067313,877.36284 63.186853,878.56811 63.968246,879.75049 C 64.686373,880.83713 65.153019,881.85419 65.149503,883.82981 C 65.144613,886.57677 64.852704,887.62367 62.063646,896.09318 C 58.926478,905.6198 58.73286,906.51558 55.915989,912.10857 C 54.049941,915.81368 53.669194,916.94594 54.940165,919.50089 C 55.484298,920.59472 57.401075,923.57022 57.567404,923.56895 C 57.616121,923.56858 56.251757,923.06196 56.725857,922.68619 C 57.199956,922.31042 58.988541,921.01952 60.207654,920.11456 C 62.969078,918.06474 63.952485,917.51807 65.170255,916.25909 C 67.019904,914.34685 69.086662,912.36886 69.7338,910.3509 C 69.991455,909.54745 70.531817,909.27588 70.518543,906.93504 C 70.501481,903.92656 70.309446,902.12913 69.086696,898.35128 C 65.16485,886.2342 64.809397,882.27273 64.236906,877.31768 C 63.853357,873.99797 64.004426,868.54795 64.479177,864.57368 C 64.818274,861.73499 65.11272,860.63257 66.456764,855.97173 L 67.883131,853.05872 L 68.513491,852.53447 C 68.909636,852.34464 69.065625,852.31602 69.096816,852.42739 C 69.120233,852.51102 69.484108,853.2353 69.631624,854.0369 C 69.953845,855.78779 70.442414,856.88569 70.612861,859.45818 C 70.953187,864.59455 71.416332,866.32079 72.002796,869.41744 C 72.747861,873.35154 75.524694,884.88735 78.11891,893.93471 C 80.053147,900.6804 80.034078,902.39828 80.384351,905.60017 C 81.025237,911.45871 77.137416,917.87174 69.289438,925.63833 C 66.508288,928.39063 65.647991,929.3422 65.032227,929.58947 C 64.597277,929.76413 63.217009,929.2514 64.164992,928.39661 C 69.982898,923.15062 74.642521,918.49593 76.470425,914.57513 C 78.307979,910.63364 79.667366,907.84338 78.759411,902.8009 C 78.409966,900.86021 78.157103,899.8472 77.032339,895.88202 C 74.313262,886.29634 71.132839,874.05084 70.391199,870.31181 C 69.794944,867.30574 69.373907,864.1496 69.232734,861.62781 C 69.117476,859.56893 68.701565,855.60771 68.539707,855.02725 L 68.399024,854.52272 L 68.165361,855.19073 C 67.76546,856.33397 66.852493,859.68724 66.594662,860.95981 C 65.92353,864.2723 65.521695,869.49782 65.637341,873.4089 C 65.801522,878.9614 66.844731,884.46263 69.644858,894.54199 C 71.348113,900.67306 71.656546,902.14515 71.897623,905.29399 C 72.035715,907.09773 72.029978,907.4542 71.845704,908.51929 C 71.1821,912.3548 68.765299,915.50639 63.443692,919.47573 C 60.942483,921.34136 58.1784,923.49682 57.970772,923.74357 C 57.782259,923.9676 57.914459,924.15225 60.410859,927.1518 C 61.300039,928.22019 62.02755,929.12559 62.02755,929.16379 C 62.02755,929.202 61.819747,929.34827 61.565765,929.48884 L 61.103979,929.74443 L 58.986905,927.10504 C 57.822514,925.65339 56.607118,924.11375 56.286026,923.68364 C 54.800548,921.69382 53.599793,919.58323 53.219838,918.29414 C 52.712089,916.5715 53.019675,915.32717 55.005089,911.07192 C 57.355517,906.03438 57.545704,905.53436 60.160633,897.51762 C 62.439076,890.53247 62.902053,888.98931 63.244768,887.23774 C 63.927627,883.74776 63.617182,881.5422 62.198745,879.80625 C 61.165447,878.54168 57.261469,876.34655 53.345981,874.82854 C 51.062888,873.94339 48.248322,872.99146 48.163037,873.07558 C 48.1396,873.09869 49.060057,874.03435 50.208495,875.15482 C 52.96788,877.847 53.729829,878.79663 54.703401,880.7569 C 56.224231,883.81907 57.141934,887.16426 57.474134,890.85669 C 57.610094,892.36792 57.55347,893.23774 57.203088,895.02022 C 56.687287,897.64423 55.879427,899.74534 53.347932,905.04685 C 51.553393,908.80501 51.249738,909.54973 50.807123,911.27827 C 50.168553,913.77205 50.157491,915.31677 50.764433,917.23931 C 51.150281,918.46152 51.554484,919.30003 52.88258,921.63333 C 53.436083,922.60577 54.141353,924.02472 54.449846,924.78656 C 55.067068,926.3108 55.157079,926.42495 57.009481,928.03248 C 57.669833,928.60554 58.210122,929.11482 58.210122,929.1642 C 58.210122,929.21359 58.010526,929.37015 57.766573,929.51211 L 57.099007,929.92488 L 54.882441,927.72168 C 50.268193,923.35947 47.822312,919.75843 46.321558,915.9196 C 45.091594,912.77344 44.853049,909.29689 45.471416,903.52962 C 45.860789,899.8981 46.006559,894.78529 45.780396,892.69234 C 45.305962,888.30187 44.438544,884.89437 42.915887,881.43961 C 41.451617,878.11734 40.499418,876.4323 37.760084,872.31581 C 36.626551,870.61241 35.492524,868.84599 35.240023,868.39042 C 34.987523,867.93485 34.741771,867.60692 34.693909,867.66169 C 34.517454,867.8636 32.458634,872.59544 32.177001,873.44638 C 31.511021,875.45858 31.321052,877.85737 31.679916,879.72321 C 32.032941,881.55869 32.863473,883.4205 34.850021,886.82963 C 36.196368,889.14011 37.304604,891.36845 37.688994,892.53799 C 38.959332,896.4031 39.278156,900.9627 38.595111,905.49664 C 37.751039,911.09945 37.828749,913.60169 38.942212,916.67321 C 39.749545,918.90027 41.44499,921.24335 44.292033,924.06662 C 46.516619,926.27262 48.927344,927.79481 51.158978,928.98149 C 52.177242,929.52296 52.020672,929.7618 51.342985,930.1541 L 50.983482,930.36221 L 49.609475,929.73392 z M 67.396608,928.2601 C 68.167628,927.30052 70.471057,925.2964 72.242677,923.72229 C 76.635006,919.81965 77.751741,918.59221 79.058616,916.67508 C 80.474591,914.5979 81.23147,913.76034 81.333136,911.10606 C 81.456428,907.88718 80.950523,906.13932 78.754967,898.2787 C 76.455254,890.04517 75.888303,886.82944 75.885436,882.00285 C 75.882902,877.73715 76.218665,874.9455 77.75017,871.2757 C 79.721301,866.55247 81.796941,863.27477 86.932868,859.48168 C 87.621058,858.97341 89.284893,858.04914 89.623535,857.73325 C 90.229897,857.16762 91.796931,856.76963 91.977737,856.76963 C 92.094027,856.76963 91.742065,858.10412 91.224012,858.82076 C 90.125868,860.33986 88.536306,863.93589 87.367614,866.21729 C 85.632455,869.60448 85.258569,872.37841 86.126515,876.43997 C 86.254987,877.04117 86.744625,879.19935 87.253315,881.27411 C 89.602282,890.85471 90.229419,894.60988 90.561774,901.23509 C 90.842674,906.83464 90.03072,913.285 88.813436,916.74079 C 88.22514,918.41092 85.368133,922.9469 84.313961,924.02243 C 83.478223,924.8751 81.167832,927.21922 79.749842,927.89669 C 78.29388,928.59231 77.530206,927.48597 77.895251,927.05214 C 77.985961,926.94434 78.27576,926.71053 78.84438,926.4122 C 81.202355,925.17502 83.096025,923.2466 84.603873,920.95022 C 85.217867,920.01515 86.512784,917.89585 86.9476,916.7026 C 88.098644,913.54385 89.1042,907.38796 88.864954,901.87721 C 88.574273,895.18175 87.995649,891.75142 85.425333,881.48563 C 83.905078,875.41375 83.672183,873.88379 83.937035,871.70853 C 84.344857,868.35908 85.142912,866.66308 90.077699,858.65865 C 90.186962,858.48142 89.450542,859.01823 87.764399,860.34491 C 85.764154,861.91873 83.240509,864.42555 82.192517,865.87967 C 81.105718,867.38762 79.420148,870.73955 78.7117,872.80163 C 77.4682,876.42108 77.064384,880.10191 77.42449,884.53472 C 77.744666,888.47602 78.475642,891.82956 80.632047,899.25024 C 81.718506,902.98897 82.288585,905.27934 82.527181,906.86418 C 82.779373,908.53932 82.775914,911.63052 82.520471,912.85638 C 81.91367,915.76841 80.246598,918.55643 75.761337,922.52787 C 73.301368,924.70603 70.861786,926.75464 69.84124,927.9474 C 69.145215,928.76087 68.33359,929.27799 67.994536,929.27799 C 67.952282,929.27799 67.195335,928.51061 67.396608,928.2601 z "
         style="fill:black"
         id="SeaweedOutline" />
    </g>
    <g
       id="Swamp">
      <g
         id="SwampMain">
        <path
           d="M 327.51697,1046.7639 C 324.40763,1046.7537 305.85328,1045.6743 298.79193,1045.0928 C 290.35346,1044.3979 275.47543,1041.8038 268.98378,1039.8956 C 266.96532,1039.3023 257.48165,1036.501 247.90897,1033.6705 C 227.78153,1027.7193 221.85125,1026.1161 214.59852,1024.6651 C 198.97924,1021.5405 175.91438,1019.0652 165.01527,1019.3439 C 159.11049,1019.4949 138.32824,1020.9943 124.38089,1022.2757 C 81.798598,1026.1876 68.739473,1025.6147 56.903228,1019.316 C 51.950602,1016.6805 49.052882,1013.2526 48.007023,1008.7923 C 47.648623,1007.2638 47.772128,1006.3134 48.736676,1003.1775 C 49.568551,1000.4728 49.773621,999.19375 49.459945,998.66621 C 48.805458,997.56549 46.228067,996.79346 42.358811,996.53914 C 37.816067,996.24054 35.752395,995.54732 22.824352,989.97717 C 16.831787,987.39524 10.494726,984.73023 8.7419963,984.05493 C 6.3715093,983.14162 5.5047167,982.60935 5.3580763,981.977 C 5.2178681,981.37239 6.1806918,979.66725 8.6921521,976.07243 C 14.465353,967.80885 21.180574,956.22492 26.613794,945.15709 C 28.599624,941.11184 42.361799,924.68832 46.450467,921.48439 C 50.88826,918.00689 55.94687,917.04238 62.472469,918.42953 C 66.216383,919.22539 71.688313,921.67327 86.58971,929.2185 C 100.66636,936.34611 105.06875,938.46644 110.46937,940.7197 C 120.2601,944.80462 129.23561,946.29969 139.94869,947.25632 L 146.00445,947.48725 L 150.24523,947.19367 C 153.77373,946.69294 154.33037,946.5059 157.0881,945.31461 C 162.85892,942.82172 169.22754,938.36167 181.4121,926.43613 C 186.81372,921.14934 187.42531,920.67174 192.76562,917.57019 C 195.87,915.7672 199.33203,913.98346 200.45901,913.60632 C 204.43182,912.27682 210.06606,913.01415 216.39868,915.69227 C 224.74822,919.22336 241.12367,927.12876 261.77105,937.59622 C 276.50634,945.06646 283.78671,947.78322 296.91951,950.71233 C 305.334,952.58908 311.8995,953.53023 325.90281,954.867 C 348.06852,956.98296 352.76274,958.04882 358.84228,962.34618 C 361.52285,964.24095 381.34134,980.62234 388.69942,987.02524 C 392.2043,990.07513 392.35322,990.26695 392.8376,992.35571 C 393.27833,994.25627 393.22425,994.77654 392.39727,996.59109 C 390.01551,1001.8172 382.30828,1010.8547 371.80088,1020.7427 C 365.82664,1026.3647 349.48822,1038.2727 341.66875,1042.7042 C 336.80343,1045.4613 332.20973,1046.7792 327.51697,1046.7639 z "
           style="fill:#1f7080;fill-opacity:1"
           id="SwampWater" />
        <path
           d="M 361.58319,1007.8652 C 360.90318,1007.4425 360.10372,1006.5436 359.80661,1005.8676 L 359.26642,1004.6388 L 356.76445,1006.1795 C 353.4004,1008.251 352.12945,1008.5034 350.49938,1007.4236 C 349.41805,1006.7074 349.05911,1006.6557 348.36676,1007.1165 C 345.74538,1008.8616 342.84947,1007.9573 342.20851,1005.1933 C 341.89656,1003.8481 342.03543,1003.4096 343.42173,1001.3628 C 345.62114,998.11548 346.96665,996.70789 351.55562,992.85363 C 353.76682,990.99645 356.32874,988.81872 357.24877,988.01421 C 359.70481,985.86661 361.70094,984.5211 362.8074,984.26741 C 364.19986,983.94812 366.44779,985.43827 366.78821,986.90627 C 367.09634,988.23502 367.26416,988.24508 368.9582,987.03636 C 372.01822,984.85302 375.26989,985.5067 375.95059,988.44202 C 376.49728,990.79949 375.41133,992.34463 371.72561,994.45346 C 369.84231,995.53101 368.73989,996.37088 368.9421,996.57405 C 369.27874,996.91229 370.32471,999.27795 371.35125,1002.0228 C 371.81692,1003.268 371.78455,1003.69 371.14541,1004.7065 C 370.37359,1005.9339 369.56268,1006.3611 365.23318,1007.8203 C 362.96235,1008.5858 362.74645,1008.5884 361.58319,1007.8652 z M 303.20346,1010.469 C 301.15946,1010.537 299.81814,1010.8007 298.13981,1011.4647 C 296.8841,1011.9614 295.14506,1012.416 294.27527,1012.4749 C 292.45969,1012.598 290.4394,1011.5262 290.15216,1010.2876 C 289.89109,1009.1617 288.72084,1008.589 286.53985,1008.5194 C 285.54177,1008.4876 284.44171,1008.3216 284.09528,1008.1507 C 283.72211,1007.9665 282.00307,1008.1737 279.87733,1008.6592 C 276.30719,1009.4745 276.28227,1009.4737 274.89398,1008.4986 C 272.05774,1006.5066 272.76574,1003.062 276.30443,1001.6363 C 276.69043,1001.4808 277.02814,1001.1247 277.05489,1000.8449 C 277.09182,1000.4587 276.10335,1000.5656 272.94776,1001.2891 C 268.31606,1002.3511 266.64213,1002.3313 265.45521,1001.2002 C 262.95751,998.82003 264.44382,995.27844 268.3127,994.39135 C 269.29942,994.1651 269.54965,993.94153 269.42376,993.39866 C 269.26235,992.70264 270.38795,990.3491 270.96093,990.18455 C 271.12559,990.13727 271.993,989.76271 272.88852,989.35221 C 273.78403,988.94172 277.17868,987.81288 280.4322,986.84369 C 286.83495,984.93637 288.29781,984.8641 289.2168,986.40965 C 289.73247,987.27691 291.14653,987.00116 295.40191,985.20355 C 298.5531,983.87238 299.21972,983.80797 302.68823,984.4994 C 305.36983,985.03398 306.50098,985.85105 306.89165,987.5357 C 307.20561,988.88958 306.70222,990.29419 305.52117,991.35971 C 305.18749,991.66076 305.11868,992.08011 305.34755,992.41778 C 305.68052,992.90904 306.68859,992.75688 313.62565,991.16823 C 317.97008,990.17331 322.19877,989.38899 323.02277,989.42529 C 325.96858,989.55508 327.7703,992.35523 326.47971,994.79791 C 326.13213,995.45578 324.61422,996.87191 323.10658,997.94485 L 320.36541,999.89567 L 320.87467,1001.5446 C 321.58225,1003.8358 320.68798,1005.534 318.09621,1006.8208 C 315.28226,1008.218 306.54679,1010.3579 303.20346,1010.469 z M 233.34517,1014.9707 C 232.62522,1014.8375 231.88621,1014.5779 231.70294,1014.3938 C 231.51965,1014.2096 230.39809,1014.0046 229.21057,1013.938 C 228.02305,1013.8715 226.46853,1013.5445 225.7561,1013.2114 C 224.73088,1012.732 224.08988,1012.7191 222.68209,1013.1492 C 221.11639,1013.6277 220.73456,1013.5878 219.4937,1012.8163 C 216.59409,1011.0136 217.1896,1007.6695 220.76706,1005.6657 C 221.93994,1005.0087 222.59857,1004.3366 222.85366,1003.5363 C 223.82044,1000.5033 231.60965,996.52455 234.31314,997.68285 C 235.47896,998.18233 235.65648,998.14696 240.84854,996.38028 C 245.34224,994.85124 246.33128,994.6158 247.10771,994.89038 C 247.68505,995.09454 248.89015,994.98156 250.3306,994.58823 C 252.49852,993.99625 252.70512,994.01512 253.90887,994.91502 C 256.73076,997.0246 255.83425,999.86061 251.55209,1002.3704 C 250.0592,1003.2454 248.18396,1004.2304 247.38488,1004.5593 C 244.90546,1005.58 244.87139,1005.6219 245.80166,1006.5084 C 247.84896,1008.4594 247.13124,1011.6344 244.38927,1012.7566 C 241.84718,1013.7969 234.72241,1015.2252 233.34517,1014.9707 z M 183.87721,1005.1106 C 181.58889,1005.3178 173.77512,1004.8528 171.09183,1004.3497 C 164.92557,1003.1936 161.02165,1002.6714 159.43315,1002.7902 C 157.52547,1002.9328 156.46227,1002.7407 155.13929,1002.0141 C 154.63472,1001.737 153.05223,1001.4808 151.62264,1001.4449 C 150.19307,1001.409 148.53722,1001.2594 147.94299,1001.1124 C 147.34876,1000.9655 145.63696,1000.9973 144.13898,1001.1833 C 141.52834,1001.5074 141.3227,1001.4617 139.18036,1000.0824 C 137.9511,999.29101 136.86632,998.30279 136.76975,997.88637 C 136.55385,996.95535 136.39436,996.98976 133.63276,998.56311 C 132.41326,999.25786 129.70581,1000.6095 127.61618,1001.5669 C 125.52654,1002.5243 122.4513,1004.1338 120.78232,1005.1436 C 116.27451,1007.8711 114.61245,1008.2799 112.74708,1007.1202 C 111.04991,1006.0651 110.57051,1003.9977 111.63163,1002.3102 C 112.05566,1001.6358 112.67135,1001.0224 112.99982,1000.9471 C 113.3283,1000.8718 115.3514,999.79823 117.49561,998.5614 C 121.59097,996.19912 125.98878,993.9858 127.08157,993.73699 C 127.43719,993.65602 129.27901,992.66572 131.1745,991.5363 C 133.91078,989.90592 134.90701,989.06785 136.00971,987.46871 C 136.77359,986.36096 138.89138,984.23043 140.7159,982.7342 C 147.13029,977.47401 153.15378,974.51451 161.40796,972.56764 C 166.60056,971.34289 166.61856,971.34169 167.90403,972.1385 C 170.45516,973.71983 170.17281,977.46199 167.40555,978.7451 C 166.78448,979.03309 165.24188,979.9643 163.97756,980.81448 L 161.67879,982.36025 L 163.24669,983.27269 C 164.50447,984.00466 164.88216,984.47526 165.15623,985.65192 C 165.34413,986.45864 165.96842,987.59724 166.54354,988.18214 C 168.00669,989.67014 168.34886,991.49259 167.43728,992.94233 C 166.55401,994.34707 166.69515,994.39805 170.94153,994.20789 C 178.3577,993.87578 184.50391,993.91678 188.78175,994.32689 C 191.3711,994.57514 194.15875,994.74624 194.9765,994.70714 C 199.46568,994.49245 200.83607,1000.0808 196.77677,1002.0486 C 195.37643,1002.7274 186.23685,1004.8969 183.87721,1005.1106 z M 252.92627,976.39702 C 252.16192,976.03931 251.5397,975.34409 251.16798,974.43243 C 250.59905,973.03714 250.55318,973.0166 247.03647,972.58343 C 238.4734,971.52866 235.05722,971.36841 232.69267,971.91059 C 229.92077,972.54615 227.94716,972.5062 226.62141,971.78769 C 226.09517,971.50247 224.89981,971.23063 223.96506,971.18359 C 222.98754,971.1344 221.82891,970.7372 221.23786,970.24868 C 220.67268,969.78153 219.46973,968.90792 218.56464,968.30733 C 216.8168,967.1475 216.14997,965.66589 216.61244,963.96982 C 216.83644,963.1483 216.77758,963.11988 215.77976,963.56776 C 215.1892,963.83284 213.37858,964.46386 211.75612,964.97 C 210.13368,965.47616 207.67857,966.33645 206.30032,966.88177 C 202.70302,968.30506 199.75858,968.52583 198.10278,967.49639 C 195.3747,965.80031 195.93771,962.17605 199.18626,960.52176 C 202.21943,958.97714 208.2668,956.82844 212.03027,955.95815 C 215.41349,955.1758 218.94903,954.04362 225.14312,951.75908 C 227.121,951.02958 226.8909,951.04393 222.97296,951.89445 C 220.56251,952.41771 217.92568,952.8874 217.11331,952.93821 C 212.51771,953.22563 211.21466,947.60657 215.4728,945.86391 C 217.73046,944.93997 233.97122,941.33602 237.79288,940.91093 C 245.01994,940.10704 246.86279,940.05427 248.61849,940.60094 C 250.63502,941.22882 251.88327,942.66562 251.85335,944.32442 C 251.831,945.56322 250.71272,948.27543 250.17328,948.39911 C 249.98084,948.44324 248.93772,949.14856 247.85522,949.96651 L 245.88704,951.45368 L 247.75678,951.57586 C 250.43927,951.75113 252.01222,952.83823 252.47579,954.83725 C 252.95854,956.91895 252.26859,958.34254 249.89746,960.1572 C 248.87347,960.94089 248.05469,961.66417 248.07796,961.76449 C 248.10122,961.86481 249.46425,961.85764 251.10691,961.74855 C 253.38239,961.59742 254.70215,961.76915 256.6493,962.46969 C 258.05495,962.97541 259.44203,963.66047 259.73171,963.99206 C 260.02138,964.32366 260.62328,966.14992 261.06927,968.05044 C 262.01911,972.09811 261.82289,972.70791 258.86025,974.91514 C 256.57273,976.61937 254.50486,977.13578 252.92627,976.39702 z M 75.646448,1012.8409 C 74.755268,1012.2868 74.32281,1011.6836 74.086718,1010.6656 C 73.634473,1008.7154 74.704428,1007.0932 77.082347,1006.1238 C 79.682635,1005.0637 79.155392,1004.5014 76.316781,1005.3072 C 74.181113,1005.9136 73.850919,1005.9025 72.69963,1005.1868 C 71.771613,1004.6098 71.344565,1004.0191 71.103273,1002.9786 C 70.739823,1001.4113 71.000044,1000.9013 73.8479,997.5993 C 75.607647,995.55895 77.42564,994.70411 78.907014,995.22047 C 79.372181,995.38261 80.244737,994.84435 81.988704,993.31943 C 84.406801,991.20504 87.721778,989.22992 89.559722,988.8085 C 90.088373,988.68729 91.149229,988.90775 91.917179,989.29841 C 93.845033,990.27912 94.334941,992.307 93.165694,994.4664 C 92.089307,996.45432 92.53998,997.28059 94.915929,997.67533 C 98.308385,998.23893 99.685483,1000.1898 98.611319,1002.9105 C 97.906854,1004.6948 96.53919,1005.7368 92.399298,1007.6432 C 90.609067,1008.4676 87.873374,1009.8054 86.319974,1010.6163 C 84.501142,1011.5656 82.317869,1012.3605 80.18756,1012.8489 C 77.120119,1013.5522 76.789835,1013.5516 75.646448,1012.8409 z M 129.07331,977.07814 C 128.49491,977.1212 127.5328,976.85609 126.93527,976.48901 C 126.27874,976.08567 125.12607,975.87953 124.02212,975.96802 C 122.47958,976.09167 121.82012,975.86644 119.78366,974.52043 C 117.15335,972.78193 116.63028,971.77361 117.20901,969.55732 C 117.50158,968.43693 117.46756,968.29394 116.86708,968.11993 C 114.693,967.4899 113.24152,964.99375 114.0431,963.26343 C 115.14935,960.87547 119.22824,958.91865 126.62004,957.22974 C 133.29785,955.70396 134.68889,955.60241 136.18343,956.53159 C 138.10377,957.72549 138.31763,959.69563 136.79758,962.18932 C 136.11978,963.30128 135.26597,964.47416 134.90023,964.79571 C 134.3674,965.26418 134.35164,965.45352 134.82096,965.74849 C 135.14311,965.95095 135.50838,966.55002 135.63267,967.07976 C 135.75696,967.60949 136.31679,968.4752 136.87672,969.00356 C 138.97279,970.98141 138.57262,973.97774 136.02894,975.35144 C 134.75138,976.04138 131.21826,976.91846 129.07331,977.07814 z M 70.733722,984.12374 C 68.151497,984.23035 66.147822,982.75015 66.125328,980.71931 C 66.115323,979.81574 65.92246,979.62016 64.83814,979.414 C 63.532754,979.16582 62.061387,977.80501 61.783855,976.58924 C 61.698394,976.21486 61.763314,975.39255 61.928119,974.76188 C 62.282943,973.40405 62.521817,973.45764 57.314953,973.72702 C 55.357039,973.8283 52.461237,973.91393 50.879835,973.91729 L 48.004561,973.92338 L 45.579161,977.92957 C 43.317673,981.66501 43.049817,981.95958 41.615644,982.28842 C 39.528262,982.76704 37.747539,981.69499 37.279836,979.67814 C 37.007202,978.50247 37.189248,977.81612 38.304279,975.81577 C 40.375401,972.1002 40.848016,970.8993 40.622266,969.92582 C 40.352354,968.76189 42.151361,965.56905 43.412066,964.97453 C 43.953207,964.71935 44.978431,963.94047 45.690349,963.24372 L 46.984742,961.97688 L 40.709817,963.39886 C 37.258609,964.18095 33.770243,964.86241 32.957889,964.91322 C 29.488081,965.13023 27.601164,962.02609 29.432479,959.1136 C 31.819628,955.31713 39.747602,950.42098 49.632241,946.63866 C 52.564324,945.5167 56.220936,944.10747 57.758044,943.50703 C 63.981429,941.076 67.685148,942.40252 67.165796,946.8765 L 67.058997,947.79655 L 75.351717,945.89733 C 79.912714,944.85276 84.318608,944.02781 85.142595,944.06411 C 87.245986,944.15679 88.553079,945.31501 89.070037,947.54425 C 89.429403,949.09394 89.355962,949.52483 88.550988,950.58949 C 86.645437,953.10982 80.68828,955.83011 65.639188,961.052 C 62.580894,962.11321 59.27133,963.54911 57.456129,964.60237 L 54.408234,966.37088 L 56.996858,966.31387 C 64.115733,966.15712 78.474479,966.54821 81.704624,966.98686 C 83.713124,967.2596 85.611475,967.42427 85.923182,967.35281 C 86.234892,967.28134 87.114076,967.6109 87.87692,968.08517 C 89.00218,968.78475 89.329017,969.25434 89.608942,970.57372 C 89.798717,971.46817 90.203,972.78569 90.507351,973.50158 C 91.356595,975.49912 90.428335,976.85341 86.603347,979.19731 C 83.726074,980.96047 82.934187,981.25989 77.586991,982.60652 C 74.36286,983.41849 71.278893,984.10123 70.733722,984.12374 z "
           style="fill:#1f8b48;fill-opacity:1"
           id="SwampPlants" />
      </g>
      <path
         d="M 325.14066,1052.2978 C 321.91735,1052.097 302.99567,1050.6318 295.38565,1049.9936 C 281.39311,1048.8204 272.20467,1046.9503 255.60929,1041.8985 C 221.70943,1031.5789 212.94418,1029.3174 199.46828,1027.4138 C 174.84781,1023.936 157.23122,1023.9519 116.71835,1027.4888 C 78.136373,1030.8571 65.525321,1030.4164 53.901784,1025.2936 C 47.874983,1022.6375 44.493638,1019.515 42.674346,1014.9256 C 42.04754,1013.3445 42.07899,1012.9305 43.109627,1009.1954 C 43.720626,1006.9812 44.143182,1004.8361 44.048641,1004.4283 C 43.748703,1003.1349 41.034749,1002.068 37.264604,1001.7612 C 32.95544,1001.4106 30.963037,1000.5813 16.619836,993.16807 C 10.991775,990.25922 4.9728762,987.36212 3.2445051,986.73004 C 1.5161374,986.09798 0.0627703,985.46216 0.014799494,985.31714 C -0.033167022,985.17211 -0.023272681,984.16297 0.99023644,983.07462 C 5.2418949,978.50898 8.6283936,973.15114 18.55406,955.28661 C 24.761808,944.11371 27.237661,937.72329 35.757628,928.85469 C 41.907719,922.45294 50.376453,916.03264 52.763525,914.44423 C 58.494055,910.63102 66.683576,911.4725 76.275815,916.30429 C 79.014035,917.68357 85.785956,921.19432 91.324521,924.10594 C 108.22009,932.98792 116.25585,936.64709 126.09201,939.93772 C 135.12696,942.96029 144.26866,942.61404 149.05006,942.40274 C 155.64785,942.11115 162.46302,938.47449 173.61939,927.42364 C 186.05061,915.10999 196.52736,911.18102 202.9759,908.3179 C 205.63798,907.13594 207.7502,907.46339 209.79655,907.37427 C 212.95252,907.23681 217.30292,908.28027 221.53622,910.19009 C 225.75065,912.09138 249.78237,923.98264 262.68353,930.5504 C 275.88285,937.26996 278.83579,938.64521 284.44782,940.68655 C 297.66463,945.49408 310.14034,947.88136 331.78022,949.74381 C 347.62074,951.10713 354.29788,952.1156 359.57293,953.94146 C 363.20446,955.19843 365.75712,957.1252 377.53538,967.49968 C 381.08502,970.62625 386.76205,975.32482 390.15102,977.94095 C 398.44478,984.34331 398.95365,984.79262 399.54604,986.23585 C 401.3828,990.71079 398.19042,1001.8845 379.8341,1018.973 C 365.77451,1032.0615 347.16754,1044.1149 336.54874,1049.8528 C 331.60288,1052.5254 327.72273,1052.4587 325.14066,1052.2978 z M 336.91901,1044.0792 C 342.29521,1041.7296 351.41704,1035.7401 362.67545,1027.1671 C 377.00038,1016.259 392.76524,998.44975 392.7106,993.23697 C 392.69309,991.56864 391.47746,990.2407 385.21057,985.04415 C 382.00491,982.386 375.53572,976.9735 370.83451,973.0164 C 357.67031,961.9357 355.51454,960.54912 348.95018,958.94037 C 345.17795,958.01588 336.03618,956.816 325.81256,955.90352 C 305.43414,954.08469 291.93438,951.37188 278.77991,946.45223 C 273.41064,944.44417 271.22759,943.41925 258.11725,936.75133 C 239.2916,927.17661 222.61513,919.19636 215.43407,916.32603 C 209.45222,913.93503 203.55791,913.3396 200.59184,914.8267 C 199.90353,915.1718 196.95786,916.83157 194.04593,918.51506 C 189.22091,921.30458 188.30295,922.01394 183.69258,926.5156 C 166.08616,943.70684 157.34385,947.14753 150.12664,947.90814 C 146.12985,948.32935 143.80136,949.02291 134.10704,947.29159 C 117.86307,944.39056 111.38806,942.77631 86.696978,930.28325 C 67.63367,920.63771 63.995608,919.16625 58.441764,918.85511 C 56.768282,918.76136 55.213213,918.96929 53.191025,919.55722 C 49.37915,920.66545 47.143056,922.43703 41.690879,928.66838 C 33.063779,938.52838 29.384714,943.38557 27.457541,947.45957 C 26.156938,950.20903 19.373566,962.61158 16.705576,967.11822 C 15.628972,968.93677 12.970159,972.98592 10.797108,976.11633 L 6.8461006,981.80799 L 8.6475343,982.38193 C 9.6383197,982.69761 16.153642,985.41836 23.126027,988.42805 C 30.098411,991.43775 36.859746,994.18464 38.151217,994.53227 C 39.442687,994.87989 42.274127,995.31166 44.443308,995.49175 C 47.617391,995.75527 48.676428,996.02605 49.86859,996.87886 C 50.683312,997.46167 51.437898,998.31797 51.545442,998.78173 C 51.652986,999.24547 51.311619,1000.9743 50.786847,1002.6235 C 49.211849,1007.5734 49.202482,1007.8342 50.499324,1010.6246 C 51.952177,1013.7509 53.495731,1015.348 57.147573,1017.5036 C 68.716181,1024.3323 81.247624,1025.0591 122.84172,1021.3136 C 141.33352,1019.6485 158.83486,1018.3761 166.21301,1018.1605 C 176.34238,1017.8645 201.61876,1020.5759 215.78477,1023.4782 C 223.59066,1025.0775 227.20009,1026.0642 252.46577,1033.5053 C 281.8558,1042.1611 287.29404,1043.1646 313.77679,1044.819 C 324.34992,1045.4794 331.5578,1045.6901 333.60361,1045.3982 C 333.84644,1045.3635 335.33838,1044.77 336.91901,1044.0792 z "
         style="fill:black"
         id="SwampOutline" />
    </g>
    <g
       id="Text">
      <path
         d="M 228.00868,984.58811 C 227.37897,983.43705 227.16124,979.55764 227.29844,971.93312 L 227.49627,960.93804 L 219.47633,961.36365 C 215.06537,961.59775 210.57726,962.12435 209.50275,962.53389 C 207.62588,963.24923 207.52813,963.57039 207.01522,970.70717 C 206.50933,977.74621 206.36598,978.23252 204.28217,979.97874 C 202.58232,981.4032 201.24698,981.8216 198.40061,981.8216 C 191.69193,981.8216 189.78182,977.73954 190.69436,965.35269 C 192.82057,936.49165 199.45713,918.98947 213.44714,905.34824 C 221.1983,897.79032 223.76668,896.24436 228.57184,896.24436 C 231.96641,896.24436 232.8996,896.57895 235.259,898.64199 C 239.55695,902.40011 240.74443,905.98265 241.51506,917.51621 C 242.5504,933.01122 243.58422,939.92452 245.11876,941.61506 C 248.68679,945.54573 249.21071,950.91376 246.35608,954.29235 C 244.69245,956.26137 244.56973,957.06446 244.29014,967.81262 C 243.87837,983.64248 242.35914,986.24801 233.54091,986.24801 C 229.50839,986.24801 228.80057,986.03563 228.00868,984.58811 z M 225.30975,945.07775 C 226.01934,944.36704 226.25834,941.16006 226.22022,932.86147 C 226.19179,926.67256 225.93483,921.0024 225.64919,920.26111 C 225.14863,918.96201 225.07413,918.96352 223.58777,920.30314 C 220.25413,923.30765 211.086,941.66496 211.086,945.33536 C 211.086,946.40078 211.93461,946.52414 217.71681,946.2993 C 221.87506,946.1376 224.70637,945.68211 225.30975,945.07775 z M 261.87909,984.81212 C 256.88826,981.53565 256.14368,977.84837 257.02457,960.77177 C 257.76018,946.51157 259.545,935.00965 264.50111,912.59057 C 267.63931,898.39494 269.08061,896.22391 275.73135,895.67465 C 279.03578,895.40175 279.82932,895.59681 281.09049,896.99204 C 283.46211,899.61575 282.95723,911.41544 279.62308,931.28676 C 278.03139,940.77311 276.72368,951.4736 276.47588,957.03933 L 276.05191,966.56173 L 281.16333,966.1239 C 285.74067,965.73183 294.37705,963.07753 303.1036,959.38079 C 304.61836,958.73911 307.86852,958.21409 310.32615,958.21409 C 315.90551,958.21409 317.75771,959.69416 317.75771,964.15261 C 317.75771,973.7768 306.37861,980.15832 281.66211,984.39541 C 268.56414,986.64076 264.78577,986.72035 261.87909,984.81212 z M 341.46254,984.61528 C 338.61969,983.52968 336.03256,981.70175 332.90281,978.5674 C 326.4201,972.07523 325.53288,968.85872 326.186,954.2165 C 326.98197,936.37128 329.49012,911.32759 330.81049,908.04121 C 332.60517,903.57427 335.62171,901.4085 340.04869,901.4085 C 343.17538,901.4085 344.10543,901.7725 346.45276,903.91483 C 349.17293,906.39744 349.19739,906.47128 349.0385,911.72087 C 348.95029,914.63572 348.1833,922.72034 347.3341,929.68669 C 346.48489,936.65305 345.73309,946.33655 345.66344,951.20561 C 345.55275,958.94374 345.74281,960.50279 347.17296,963.58758 C 349.94618,969.56936 356.04825,970.84272 362.27493,966.73903 C 364.25955,965.43106 365.32834,964.04934 365.86443,962.09858 C 366.28431,960.57074 367.61098,946.54061 368.81261,930.92052 L 370.99735,902.52036 L 373.71999,900.0355 C 376.27067,897.70757 376.70261,897.57211 380.55951,897.89064 C 384.02599,898.17693 385.00784,898.60006 386.77429,900.56894 C 389.4954,903.60191 389.49162,904.62006 386.62986,939.40185 C 385.04016,958.72305 384.03502,967.50149 383.18956,969.44806 C 381.7444,972.7753 374.03592,980.31256 369.96745,982.37646 C 361.68917,986.57598 349.17151,987.55913 341.46254,984.61528 z M 402.99736,984.10535 C 401.00917,981.32465 401.02608,977.08297 403.04031,973.34029 C 403.90652,971.73076 405.09138,969.07984 405.67334,967.44934 C 406.70808,964.55021 408.51071,942.78042 409.0003,927.27053 L 409.2435,919.56562 L 405.3117,919.7657 C 400.40231,920.01553 398.01312,918.61808 397.35233,915.11027 C 396.02521,908.06512 403.68214,900.51737 415.04121,897.6736 C 419.57807,896.5378 432.76447,897.18782 438.87454,898.84848 C 454.18407,903.00945 467.95812,913.60249 471.46106,923.90941 C 473.78748,930.75459 471.80591,943.03158 466.69614,953.43088 C 461.16552,964.68668 451.495,974.18559 439.61532,980.03112 C 430.35248,984.58899 423.21781,986.24801 412.87933,986.24801 L 404.52935,986.24801 L 402.99736,984.10535 z M 432.78777,966.60146 C 442.0503,961.94937 454.71791,944.13 454.78363,935.66016 C 454.83127,929.52044 450.02885,922.33492 443.74348,919.14152 C 440.32715,917.4058 432.58523,915.45234 429.05926,915.43637 C 426.804,915.42616 426.65174,915.5872 426.65174,917.98272 C 426.65174,919.38922 426.33136,926.27781 425.93981,933.29072 C 425.54825,940.30363 425.09968,951.10417 424.94302,957.29191 L 424.65816,968.54238 L 426.79074,968.54238 C 427.96366,968.54238 430.66233,967.66896 432.78777,966.60146 z M 482.08029,985.48216 C 479.5077,983.98729 479.08173,980.30774 479.92616,966.87457 C 480.36588,959.87966 481.56174,946.85297 482.58364,937.92638 C 483.60555,928.99978 484.65997,918.07798 484.92683,913.65569 C 485.38049,906.13749 485.55359,905.45459 487.59157,903.14298 C 489.24205,901.27091 490.36811,900.67077 492.23029,900.67077 C 495.32899,900.67077 498.8531,903.51524 499.98459,906.92965 C 501.86913,912.61639 496.7472,977.56321 494.01292,982.65126 C 493.62636,983.37059 492.5718,984.47414 491.66944,985.10357 C 489.84582,986.37564 484.01418,986.60587 482.08029,985.48216 z M 533.82209,984.80152 C 522.15596,981.66945 512.11034,974.41399 510.36157,967.85709 C 509.1196,963.20044 509.95342,958.87748 512.57625,956.37496 C 514.41041,954.62494 515.35552,954.31464 518.85138,954.31464 C 522.84245,954.31464 523.10022,954.44106 527.36084,958.48833 C 532.07316,962.96467 539.07391,966.72899 544.07575,967.47598 C 550.71908,968.46813 567.15936,962.30811 571.74265,957.10947 C 574.46008,954.02719 574.66147,952.16741 572.50986,950.02461 C 569.17363,946.70208 565.15256,945.73926 545.34492,943.52006 C 524.25948,941.15771 522.13549,940.5553 517.8822,935.73097 C 515.79118,933.35918 515.54482,932.59228 515.54482,928.45459 C 515.54482,924.64357 515.9142,923.24937 517.64319,920.53421 C 524.54718,909.69244 548.47132,897.50779 564.9599,896.43565 C 570.52335,896.07389 571.39283,896.21243 575.19951,898.06722 C 581.06162,900.92351 583.69619,904.69898 583.69619,910.24342 C 583.69619,913.76356 583.39912,914.70847 581.83132,916.17531 C 579.57044,918.29056 575.07291,918.43859 568.88068,916.60154 C 564.22184,915.21941 560.3494,915.54556 554.06516,917.84933 C 550.00537,919.33764 540.39838,924.93048 540.95295,925.48278 C 541.11339,925.64256 546.54605,926.10758 553.02553,926.51617 C 566.18121,927.34575 572.40238,928.61875 578.71786,931.77347 C 589.55441,937.18656 594.30224,945.29245 592.45901,955.23349 C 591.32625,961.34278 588.49133,966.16254 582.66115,971.89123 C 576.63956,977.80799 566.81273,983.18674 558.50981,985.11055 C 551.86626,986.64987 540.16099,986.50335 533.82209,984.80152 z M 109.64028,984.61727 C 108.64402,984.09223 107.14395,982.50145 106.30679,981.08222 C 103.87155,976.95373 104.27951,955.11982 107.29236,928.33582 C 108.57033,916.9747 109.94861,903.92619 110.35521,899.33912 L 111.09447,890.99898 L 109.14916,888.45903 C 106.63771,885.17987 105.22839,881.18557 105.1876,877.23121 C 105.10788,869.50418 117.39451,862.28035 138.51948,857.63399 C 151.64369,854.74734 159.41255,854.04392 167.88482,854.97509 C 193.14475,857.75136 206.16188,872.11537 202.27585,892.92456 C 200.4847,902.51596 191.981,915.84499 182.37712,924.11464 C 170.65983,934.20408 160.53827,939.90754 142.22984,946.73746 C 134.99252,949.43733 131.36294,951.16639 131.02564,952.07492 C 130.75123,952.81405 130.28025,958.48872 129.97904,964.68526 C 129.35971,977.42589 128.81781,978.85954 123.11178,982.85344 C 119.4883,985.38965 112.77391,986.26877 109.64028,984.61727 z M 141.24011,921.21444 C 157.96589,915.01774 173.53416,898.8962 173.64004,887.66307 C 173.68725,882.65298 172.6558,881.64466 166.43302,880.61774 C 156.87542,879.04049 143.86315,881.95532 140.99398,886.31624 C 139.40525,888.73101 134.99396,909.05437 134.3154,917.08537 C 133.85289,922.55942 133.89874,922.80282 135.39259,922.80282 C 136.25074,922.80282 138.88212,922.08806 141.24011,921.21444 z "
         style="fill:#8f7121;fill-opacity:1"
         id="TextMain" />
      <path
         d="M 112.69624,988.25472 C 110.79286,988.06673 108.73522,987.55411 107.71067,987.01262 C 106.4137,986.3272 105.11854,984.76037 103.92338,982.43111 C 103.04385,980.71705 102.5896,979.07601 102.48579,977.23759 C 102.45791,976.74275 102.36944,975.7281 102.2893,974.98284 C 102.20916,974.23749 102.11087,972.95554 102.07085,972.13397 C 101.97587,970.18468 101.97657,962.302 102.07195,959.61984 C 102.28599,953.60405 103.20644,942.94662 104.44513,932.14355 C 105.2046,925.52035 105.39587,923.72728 105.64872,920.86072 C 105.79415,919.21139 105.99475,917.1704 106.09435,916.32506 C 106.43446,913.43893 107.41749,904.15055 107.71378,901.02369 C 107.75911,900.54533 107.84357,899.06091 107.90144,897.72502 C 107.96392,896.28315 108.05078,895.0982 108.11518,894.80892 C 108.17485,894.54093 108.24356,893.69329 108.26793,892.92546 L 108.31216,891.52924 L 107.59472,890.6763 C 105.22516,887.85959 103.68196,884.57781 103.05148,881.01454 C 102.68619,878.95018 102.59291,877.16081 102.78458,875.89394 C 103.11356,873.7187 104.14193,871.97148 106.37017,869.80144 C 109.58235,866.67338 113.27968,864.41554 120.01386,861.46977 C 129.27678,857.41786 146.81899,853.14999 157.06634,852.45528 C 158.77624,852.33931 171.81733,852.32832 173.3169,852.44159 C 178.66325,852.84524 182.68674,853.50179 187.21876,854.70993 C 193.31835,856.33608 199.35936,859.30892 203.18457,862.56703 C 207.69813,866.41118 211.04682,871.53677 212.58169,876.95004 C 213.42691,879.93097 213.723,882.48028 213.73744,886.89968 C 213.74396,888.89182 213.72109,889.41103 213.57726,890.53566 C 212.78991,896.69349 211.09386,901.61072 207.78529,907.32875 C 203.15839,915.32489 196.02652,923.38976 187.72407,930.01436 C 182.74171,933.98976 175.20092,938.93366 169.32951,942.07431 C 168.153,942.70359 166.38363,943.44525 161.50518,945.35389 C 151.48831,949.27285 149.03249,950.17883 144.57761,951.59902 C 143.19148,952.04092 141.96672,952.44886 141.85589,952.50539 C 141.68709,952.5917 141.64767,952.67211 141.61177,953.00283 C 141.5883,953.21979 141.26433,958.30593 140.89182,964.30543 C 140.51941,970.30484 140.17929,975.50016 140.13606,975.85066 C 140.0146,976.83674 139.79876,977.53306 139.3112,978.51205 C 138.73689,979.66504 138.11032,980.48941 136.75348,981.87694 C 135.40345,983.25757 134.56836,983.96477 133.32074,984.78385 C 130.57676,986.58521 127.71914,987.8284 125.393,988.23274 C 124.47787,988.39176 121.84542,988.34841 120.35237,988.14973 C 119.66963,988.05894 118.9533,987.95476 118.76062,987.9184 C 118.5537,987.87934 118.31208,987.88024 118.17056,987.92069 C 117.76736,988.03596 116.7425,988.20897 115.97301,988.29187 C 115.04334,988.39196 113.96171,988.37967 112.69624,988.25472 z M 117.15483,984.62203 C 118.77687,984.2087 121.26068,983.05191 122.79355,981.996 C 123.96544,981.18872 125.68306,979.49973 126.68505,978.16944 C 127.22697,977.44995 127.69196,976.51571 127.80479,975.91948 C 127.88914,975.47419 128.57679,965.13889 129.11881,956.17124 C 129.30828,953.03749 129.48029,950.36212 129.50115,950.22598 C 129.52211,950.08983 129.57968,949.96697 129.62903,949.95298 C 129.67848,949.939 130.04056,949.8532 130.43373,949.7623 C 130.8268,949.6715 131.87633,949.36006 132.76589,949.07038 C 135.30004,948.24532 148.45327,943.26855 155.08834,940.62435 C 161.5458,938.05096 171.92515,931.47371 179.22271,925.33076 C 182.88865,922.24486 186.75718,918.38872 189.53597,915.0506 C 194.3414,909.27784 198.18235,902.61738 199.9432,897.00384 C 200.83155,894.17154 201.36133,891.06806 201.49513,887.91173 C 201.55571,886.48165 201.41449,883.32093 201.22753,881.92481 C 200.60127,877.24781 199.0684,873.43452 196.3861,869.88165 C 191.89741,863.93588 185.27376,859.91234 176.51745,857.81251 C 172.1087,856.75531 168.41839,856.19095 164.25117,855.93664 C 160.99345,855.73786 158.21667,855.79769 155.29837,856.12972 C 147.7617,856.98725 141.94466,858.06553 134.0449,860.06946 C 127.036,861.84734 122.89736,863.26104 117.90828,865.58152 C 113.36975,867.69243 109.466,870.41305 107.78198,872.63873 C 107.23545,873.36121 106.63446,874.56115 106.42193,875.35435 C 106.19495,876.20189 106.14701,878.03721 106.31882,879.30268 C 106.85983,883.28597 108.34065,886.40494 111.09396,889.36029 L 111.84981,890.17157 L 111.8118,891.6469 C 111.74791,894.122 111.70749,894.88414 111.58994,895.82098 C 111.52785,896.31582 111.42364,897.73271 111.35835,898.96971 C 111.22224,901.54639 110.8059,906.10104 110.31243,910.41076 C 110.12537,912.04391 109.78475,915.19824 109.55547,917.42032 C 108.9938,922.86426 108.31527,929.16033 107.86383,933.11815 C 106.88832,941.66926 106.15623,949.52197 105.79827,955.27156 C 105.73418,956.30239 105.66457,957.36509 105.64361,957.63309 C 105.62274,957.90118 105.5737,961.07229 105.53458,964.68021 L 105.46357,971.24008 L 105.71652,973.86401 C 105.85564,975.30708 105.99144,976.87061 106.01822,977.33838 C 106.09826,978.7347 106.49865,979.83954 107.50335,981.43584 C 108.68939,983.3205 109.71645,984.07075 111.72795,984.52234 C 112.91649,984.78914 113.57676,984.84138 115.19559,984.79703 C 116.21724,984.76906 116.77289,984.71942 117.15483,984.62203 z M 132.69066,921.27276 C 132.69066,917.68252 132.69126,917.67044 132.91062,916.19361 C 133.24752,913.92638 133.35885,912.95298 133.4401,911.56455 C 133.52475,910.11639 133.55343,909.95198 134.22985,907.03838 C 134.50156,905.8684 135.04288,903.38881 135.43284,901.52811 C 136.0888,898.39836 136.23152,897.67038 136.57384,895.7085 C 136.64215,895.31685 136.96651,893.89995 137.29459,892.55987 C 137.62267,891.21979 137.9689,889.73537 138.06409,889.2612 C 138.52707,886.95232 139.71922,885.14277 141.78669,883.6103 C 143.7024,882.19041 145.79674,881.23629 148.52739,880.53958 C 150.81911,879.95494 152.87825,879.66807 156.69022,879.40237 C 158.24275,879.29419 161.72784,879.23925 163.39552,879.29669 C 167.03056,879.42185 169.33894,879.8132 171.45304,880.66264 C 172.22886,880.97439 172.53637,881.17706 173.15382,881.78357 C 173.97035,882.58556 174.3228,883.21705 174.6914,884.53815 C 174.82911,885.03179 174.85198,885.36062 174.87876,887.2345 C 174.91216,889.56766 174.87294,890.02044 174.51227,891.4728 C 173.52863,895.43342 171.42737,899.35498 168.02783,903.5751 C 162.50195,910.43463 155.42374,916.09472 146.87526,920.48984 C 142.79198,922.58917 139.76315,923.69761 136.15148,924.4144 C 135.10667,924.62177 133.3082,924.87158 132.86047,924.87158 L 132.69066,924.87158 L 132.69066,921.27276 z M 149.4361,915.33388 C 153.74293,912.73992 158.75799,908.76622 162.29513,905.14512 C 164.56129,902.82505 165.91252,901.20128 167.32875,899.09587 C 169.88858,895.29038 171.17502,892.04096 171.44482,888.69894 C 171.54502,887.45805 171.46197,886.36448 171.21965,885.733 C 171.04262,885.27172 170.54102,884.64203 170.05778,884.27455 C 168.74407,883.27548 166.18193,882.77984 163.64366,883.03376 C 160.76387,883.32183 157.62611,884.04062 155.09065,884.99294 C 153.71705,885.50895 153.04385,885.92698 152.14055,886.82466 C 151.31509,887.64503 151.00607,888.10661 150.61952,889.09629 C 150.4794,889.45498 150.26666,889.9678 150.14671,890.2358 C 149.92896,890.72235 149.73117,891.62762 149.46177,893.37065 C 149.37752,893.91573 149.19277,894.66808 149.01063,895.20737 C 148.6664,896.22722 148.49108,897.06926 148.26641,898.78232 C 148.08276,900.18314 148.14104,899.88697 147.49962,902.68071 C 147.21086,903.93829 146.70415,906.33357 146.37357,908.00348 C 145.85161,910.6404 145.76264,911.20736 145.69735,912.3142 C 145.65432,913.04368 145.49535,914.40573 145.32554,915.4993 C 145.16245,916.55011 145.02906,917.47216 145.02906,917.54838 C 145.02906,917.66145 145.33557,917.5298 146.70295,916.82929 C 147.62359,916.35772 148.85356,915.68479 149.4361,915.33388 z M 266.0047,988.29107 C 264.96591,988.19608 263.67887,987.86636 262.65682,987.43345 C 261.38914,986.89645 259.39319,985.24752 258.3918,983.90984 C 257.18551,982.29856 256.03698,979.68772 255.58022,977.51827 C 255.47831,977.03402 255.3381,976.07211 255.26879,975.38079 C 255.15666,974.26296 255.15314,973.89767 255.23709,972.08213 C 255.28905,970.9593 255.37872,969.60194 255.43639,969.06594 C 255.49867,968.4874 255.573,966.40046 255.61923,963.93056 C 255.7077,959.20001 255.73668,958.36736 255.88864,956.17124 C 255.94852,955.30532 256.06597,953.39928 256.14962,951.93544 C 256.4452,946.7625 256.36546,947.23556 259.95196,929.36969 C 263.47356,911.82705 265.06681,904.3663 265.7009,902.44957 C 266.64672,899.59071 267.84399,897.96385 270.0945,896.47963 C 271.39157,895.6243 272.57811,895.15793 274.05471,894.92319 C 275.03885,894.76667 277.35355,894.77067 278.38382,894.93049 C 279.10367,895.04226 279.23345,895.04246 279.97777,894.93248 C 281.68737,894.68007 283.55715,894.70754 284.77548,895.0031 C 287.20743,895.59303 288.78484,897.10043 289.35775,899.38204 C 289.85663,901.36899 289.89204,904.75876 289.47179,910.29009 C 289.05223,915.81204 288.61664,918.8497 285.82792,935.70462 C 284.50166,943.72054 284.19776,945.71438 283.90819,948.29946 C 283.62786,950.80262 283.39055,953.90701 283.2722,956.62103 C 283.2074,958.10545 283.12175,959.50547 283.08183,959.73221 C 282.96207,960.41274 282.85756,962.44424 282.85726,964.09927 C 282.85716,964.9548 282.86639,965.65481 282.87772,965.65481 C 282.98805,965.65481 285.23916,965.24317 285.79111,965.12211 C 288.80289,964.46126 293.00272,962.96715 300.87549,959.75558 C 304.59187,958.2395 305.25515,957.99907 306.29235,957.79191 C 307.88369,957.47397 309.08989,957.39815 311.77118,957.4474 C 313.14388,957.47267 314.61998,957.46438 315.05137,957.42902 C 316.39126,957.31914 318.50256,957.47487 319.98488,957.79291 C 321.39649,958.09566 322.29798,958.54036 323.07108,959.31518 C 323.69504,959.94058 324.13184,960.74836 324.41128,961.79388 L 324.59172,962.46861 L 324.63765,961.53147 C 324.66293,961.01616 324.70245,959.58228 324.72552,958.34528 C 324.78008,955.4177 324.98007,952.19275 325.36011,948.11207 C 325.43884,947.26673 325.5242,945.90047 325.54977,945.07581 C 325.64255,942.0811 325.75027,940.58529 326.45898,932.44351 C 326.97362,926.5308 327.06499,925.60355 327.35696,923.33472 C 327.5705,921.675 327.65345,920.66115 327.81102,917.78701 C 328.02435,913.89621 328.20529,912.43207 328.7097,910.51494 C 329.54198,907.35202 330.68047,905.19596 332.47362,903.38741 C 333.81833,902.03105 335.12212,901.34492 337.17574,900.91271 C 337.99308,900.74071 340.70305,900.71833 341.9929,900.87296 C 342.77653,900.96685 342.95106,900.96405 343.79858,900.84349 C 345.00919,900.67128 347.15389,900.72093 348.48747,900.95197 C 352.39301,901.6286 354.94532,903.99023 355.92765,907.83637 C 356.1768,908.81187 356.15914,911.63467 355.88252,915.0506 C 355.4055,920.94013 354.97611,924.84292 353.84113,933.6044 C 353.23883,938.25363 353.12921,939.36577 352.86211,943.53895 C 352.7579,945.1676 352.6235,947.09053 352.56342,947.81211 C 352.31317,950.8208 352.27917,951.56706 352.28138,953.99711 C 352.28449,957.36359 352.43133,959.08594 352.87565,960.96921 C 353.4946,963.59264 354.75586,965.85827 356.22584,966.9874 C 356.76355,967.40043 357.39272,967.77141 357.97105,968.01633 L 358.45098,968.2196 L 359.24856,967.8648 C 361.73296,966.75975 363.90053,964.8659 364.65227,963.14335 C 364.76029,962.89593 364.88607,962.55861 364.9319,962.3937 C 365.04695,961.97967 365.44223,957.23514 367.26797,934.35515 C 369.16623,910.56478 369.64706,904.8106 369.78628,904.21757 C 370.42137,901.51243 372.12385,899.48003 374.93032,898.07622 C 375.76902,897.6567 376.40562,897.42136 377.31473,897.19472 C 377.91211,897.04589 378.17209,897.02701 379.56986,897.03171 C 380.57285,897.035 381.42689,897.07855 381.90863,897.15077 C 382.55596,897.24796 382.74934,897.25016 383.22516,897.16575 C 383.53197,897.11132 384.27388,897.04329 384.87387,897.01453 C 387.04154,896.91064 388.91723,897.29711 390.77968,898.23135 C 393.53139,899.61158 395.01391,901.48636 395.75191,904.51913 C 395.94238,905.30154 395.95,905.40672 395.90687,906.65401 C 395.8819,907.37559 395.81069,908.6913 395.7487,909.5778 C 395.68672,910.4644 395.56576,912.87647 395.48,914.93813 C 395.36215,917.77182 395.24269,919.57388 394.99044,922.32257 C 394.54541,927.17118 394.14061,931.97314 393.63791,938.366 C 393.21103,943.79426 392.71776,949.68159 392.31887,954.10958 C 392.08738,956.67947 391.84456,959.98493 391.56994,964.30543 C 391.35339,967.71307 391.31709,967.8714 390.27147,969.96552 C 387.99969,974.51537 384.40166,978.53662 379.75792,981.71582 C 375.48487,984.64121 369.14065,987.06017 363.50746,987.912 C 361.01422,988.28898 360.39879,988.31824 354.96849,988.31794 C 349.53088,988.31774 348.8012,988.28208 346.66082,987.9122 C 342.2959,987.15796 338.33761,985.43041 334.6457,982.66834 C 331.30303,980.16747 327.99316,975.97362 326.45457,972.28959 C 325.84886,970.83933 325.2892,968.89923 324.94617,967.06051 C 324.87115,966.65847 324.7888,966.32954 324.76303,966.32954 C 324.73735,966.32954 324.67336,966.58405 324.6209,966.8951 C 324.37377,968.36074 323.63486,970.09188 322.71271,971.36564 C 319.91046,975.23636 315.05698,978.40996 307.57126,981.26643 C 303.26462,982.90987 299.00642,984.03719 292.37404,985.28977 C 288.26489,986.06579 275.26723,988.21057 274.12993,988.30026 C 273.07369,988.38347 272.22626,988.34851 271.0006,988.17091 C 270.19129,988.05364 270.13984,988.05484 269.30786,988.21097 C 268.40306,988.38067 267.28121,988.40784 266.0047,988.29107 z M 268.03987,985.9729 C 269.51126,985.83016 284.03999,983.40131 288.04814,982.62799 C 290.79944,982.09719 292.67985,981.6407 295.42985,980.83612 C 302.03766,978.9027 306.62584,976.9665 310.09158,974.64852 C 312.08662,973.31433 314.09201,971.40679 315.04595,969.93606 C 315.51254,969.21667 316.08064,968.00654 316.3025,967.25929 C 316.48815,966.6342 316.50079,966.49475 316.50169,965.05508 C 316.50259,963.72779 316.48113,963.43742 316.34432,962.926 C 315.97071,961.52918 315.16751,960.68064 313.78449,960.22166 C 312.782,959.88903 312.16666,959.80113 310.54302,959.75878 C 309.14586,959.72242 308.87886,959.73681 307.70516,959.91161 C 306.22244,960.13246 305.93568,960.22595 302.26333,961.685 C 297.74686,963.47937 290.44409,966.14026 288.08575,966.85085 C 284.75392,967.85471 281.57273,968.25256 277.36498,968.19173 C 276.08256,968.17325 275.47194,968.13689 275.358,968.07227 C 275.12079,967.93782 274.90535,967.28866 274.80164,966.39607 C 274.65741,965.15367 274.67687,961.16689 274.83273,960.03217 C 274.90354,959.51676 274.99451,958.25159 275.03483,957.22076 C 275.30033,950.44403 275.74325,946.72584 277.62927,935.44221 C 279.2154,925.95286 280.41518,918.28944 280.78679,915.27555 C 281.46812,909.74871 281.75798,903.43995 281.42409,901.40615 C 281.30152,900.6602 281.00534,899.70168 280.71598,899.11435 C 280.07085,897.80563 279.20988,897.32218 277.16388,897.11991 C 275.0582,896.91174 273.02323,897.37562 271.48816,898.41354 C 270.61365,899.00477 269.43162,900.34216 268.70225,901.56557 C 267.93947,902.84502 267.61049,903.91321 266.83498,907.62861 C 266.58965,908.80378 266.18685,910.65928 265.93991,911.75194 C 264.98978,915.95658 263.54076,922.97893 262.09575,930.38184 C 260.27492,939.71048 260.03189,940.97325 259.53782,943.67 C 258.76201,947.905 258.72871,948.18269 258.44396,952.79756 C 258.33955,954.48815 258.22039,956.30989 258.17917,956.84598 C 258.10124,957.85803 257.99542,961.52318 257.91729,965.91721 C 257.89241,967.31912 257.82361,968.93849 257.76443,969.51573 C 257.55832,971.52746 257.46815,972.89491 257.48761,973.71398 C 257.51268,974.76709 257.69743,976.38146 257.8866,977.20013 C 258.20023,978.558 258.94776,980.48461 259.57363,981.54831 C 260.48906,983.10425 261.91832,984.44823 263.48439,985.22575 C 264.84113,985.89938 266.31162,986.14051 268.03987,985.9729 z M 353.53512,985.9703 C 356.74008,985.84135 359.61685,985.33682 362.94708,984.31947 C 368.72391,982.55467 373.54188,979.68622 377.50319,975.65328 C 379.51991,973.60011 380.38057,972.49246 381.54434,970.45287 C 381.92408,969.78733 382.71554,968.14888 382.90239,967.64156 C 383.15043,966.96782 383.11362,967.3419 383.7096,959.43235 C 384.0793,954.52491 384.49936,949.40081 384.91088,944.77595 C 385.05401,943.16777 385.22372,941.12678 385.28801,940.24028 C 385.61568,935.7237 385.82691,933.20045 386.30484,928.09523 C 387.0618,920.00939 387.19088,918.22351 387.32087,914.03855 C 387.34655,913.21388 387.4651,911.04834 387.58425,909.2262 C 387.82487,905.54906 387.82307,905.49892 387.40592,904.25792 C 386.78557,902.41241 385.59472,901.08741 383.79766,900.24317 C 382.55807,899.66083 381.51114,899.40012 380.13414,899.331 C 378.44921,899.2465 377.21814,899.49172 375.87413,900.17964 C 373.89824,901.1912 372.61632,902.66922 372.11212,904.51743 C 371.98092,904.99869 371.54252,910.22627 370.05338,929.06983 C 367.23457,964.73704 367.40518,962.70714 367.16908,963.37119 C 366.51733,965.20332 364.74595,967.23951 362.52944,968.70425 C 360.66388,969.93716 358.47926,970.74414 356.56114,970.90886 C 354.31775,971.10164 352.04347,970.73925 350.37921,969.92397 C 349.42978,969.4589 348.83701,969.0127 347.93,968.08046 C 346.82511,966.94484 346.1171,965.79744 345.49614,964.13603 C 344.13428,960.49205 343.72516,954.50004 344.35905,947.47899 C 344.45975,946.36335 344.61161,944.38789 344.69646,943.08906 C 344.99836,938.46809 345.2128,936.4293 346.12763,929.48376 C 346.64928,925.52315 346.95369,922.91839 347.25379,919.84867 C 347.73322,914.94442 348.04354,910.61063 347.97574,909.76619 C 347.67715,906.048 345.28792,903.63253 341.40695,903.12511 C 340.39493,902.99286 338.22938,903.07456 337.41516,903.27584 C 336.09683,903.60167 335.13766,904.18501 334.0421,905.32691 C 331.91014,907.5491 330.78027,910.50935 330.37366,914.93813 C 330.30937,915.63914 330.18851,917.34281 330.10516,918.72414 C 329.92241,921.75371 329.92161,921.7631 329.64769,923.9719 C 329.40497,925.92899 329.17609,928.3003 328.56557,935.17981 C 328.16748,939.66503 328.06307,941.11339 327.8066,945.71299 C 327.74101,946.88815 327.5703,949.38463 327.42717,951.2607 C 327.10631,955.46594 327.0003,958.53876 327.03661,962.58109 C 327.0674,966.01969 327.09568,966.28809 327.65565,968.45503 C 329.30587,974.8407 333.79396,980.17776 340.18502,983.35446 C 342.5984,984.55401 344.90508,985.27849 347.68447,985.7101 C 349.70971,986.02454 350.88632,986.07688 353.53512,985.9703 z M 407.55681,988.29877 C 406.28793,988.24153 405.90198,988.15922 405.11804,987.77836 C 403.8281,987.15176 402.49241,985.97719 401.64228,984.72162 C 401.14499,983.98735 400.58763,982.82027 400.32364,981.96064 C 400.12626,981.31777 400.11663,981.21519 400.12034,979.7865 C 400.12555,977.80884 400.27239,977.04531 400.9446,975.50106 C 401.24238,974.81703 402.20265,972.94465 402.55319,972.36461 C 402.88288,971.81913 403.80783,970.03574 404.20803,969.17412 C 404.87181,967.74504 405.12546,966.73768 405.60138,963.64039 C 405.74481,962.70734 405.9439,961.47154 406.0438,960.8943 C 406.23598,959.78445 406.27399,959.14917 406.39365,955.04672 C 406.48632,951.86722 406.58873,949.93091 406.73065,948.67433 C 406.91149,947.07195 406.97709,945.96999 407.29112,939.26569 C 407.60636,932.53361 407.63104,932.0956 407.74798,931.1315 C 407.788,930.80167 407.87175,929.31725 407.93404,927.83283 C 408.04527,925.18483 408.15079,923.2668 408.24436,922.19531 C 408.2913,921.65772 408.2908,921.65562 408.09111,921.60568 C 407.88008,921.55284 407.62803,921.55074 404.4346,921.57542 C 402.14859,921.593 401.39223,921.52188 400.47379,921.20274 C 399.43901,920.84304 398.76791,920.42442 398.00212,919.66068 C 397.26212,918.92272 396.96734,918.47982 396.57677,917.51881 C 395.82102,915.65921 395.79173,913.0213 396.50155,910.73988 C 396.76333,909.89854 397.57284,908.31453 398.14615,907.52183 C 399.43459,905.74035 401.56274,903.67838 403.64465,902.19436 C 405.66618,900.75329 409.33432,898.88411 411.85614,898.0099 C 414.03784,897.25365 416.97781,896.49651 419.1207,896.13912 C 420.08808,895.9778 420.29029,895.97241 425.31186,895.9746 C 431.72659,895.9773 432.7349,896.04293 436.93551,896.73045 C 441.21046,897.43025 444.31462,898.17771 447.84435,899.35727 C 454.50721,901.58395 461.46647,905.32741 466.12616,909.19134 C 468.04759,910.78453 470.86249,913.74228 472.46757,915.85439 C 475.4273,919.74908 477.64903,924.73234 478.49314,929.36969 C 478.83787,931.26385 479.12282,934.7459 478.98361,935.3635 C 478.9475,935.52372 478.85001,936.37446 478.76706,937.25406 C 477.99957,945.39195 475.35167,952.88976 470.60362,960.36949 C 463.88839,970.94831 454.12748,978.88073 441.64014,983.90734 C 435.58399,986.34518 429.70607,987.68676 422.71632,988.22635 C 421.51664,988.31904 409.29881,988.37738 407.55681,988.29877 z M 416.99857,985.86692 C 419.74496,985.62819 421.44563,985.39415 423.9154,984.9151 C 433.62525,983.03173 443.24994,978.41456 451.00417,971.92011 C 453.5301,969.80461 456.17579,967.1565 458.34967,964.56774 C 460.57601,961.91664 462.83445,958.5978 464.62469,955.34658 C 467.79765,949.5842 469.74546,943.81423 470.63511,937.54134 C 470.98666,935.06274 471.04634,934.05978 471.05025,930.56923 C 471.05386,927.30133 471.05035,927.22002 470.87854,926.59583 C 469.95157,923.22854 468.34889,920.01298 466.32004,917.45049 C 465.16229,915.98814 462.96413,913.76516 460.9727,912.04291 C 456.21461,907.92787 449.14352,904.03957 442.25177,901.74847 C 436.30012,899.76991 429.79694,898.52821 424.318,898.32444 C 420.34686,898.17671 418.30256,898.40935 414.66632,899.4228 C 410.09147,900.69775 406.14099,902.70698 403.11798,905.29605 C 400.40017,907.62381 399.09147,909.54733 398.52127,912.0518 C 398.29851,913.02999 398.26962,914.71408 398.45969,915.63135 C 398.78766,917.21365 399.75595,918.38073 401.22012,918.95898 C 401.83585,919.2021 401.84709,919.2035 403.39861,919.23367 C 405.22947,919.26923 405.77641,919.2083 407.25742,918.80365 C 408.49371,918.46584 409.35407,918.35606 409.68707,918.49351 C 409.80632,918.54265 409.97563,918.71016 410.06339,918.86568 C 410.54342,919.71682 410.60892,921.01665 410.38896,925.32137 C 410.3015,927.03254 410.19568,929.12417 410.15376,929.96951 C 410.11183,930.81475 410.04403,931.84369 410.00301,932.25602 C 409.96199,932.66836 409.80953,935.62031 409.6643,938.81589 C 409.2969,946.89884 409.2613,947.53822 409.10052,948.93673 C 408.88026,950.85207 408.88187,950.8246 408.72319,955.2341 C 408.5576,959.83639 408.5573,959.84169 408.30655,961.38154 C 408.20926,961.97947 408.05841,962.97464 407.97145,963.59314 C 407.76935,965.03081 407.47537,966.71051 407.28942,967.49083 C 406.96154,968.86647 406.70808,969.43862 404.85385,972.9896 C 403.51907,975.54601 402.97656,976.73096 402.66322,977.77438 C 402.50003,978.31797 402.45701,978.6409 402.42401,979.57105 C 402.38599,980.63964 402.39522,980.74512 402.58399,981.40088 C 403.04235,982.99327 404.09399,984.5576 405.20169,985.29467 C 405.84381,985.72198 406.39686,985.90867 407.2182,985.9754 C 408.43463,986.07418 415.51755,985.99557 416.99857,985.86692 z M 424.69683,970.48554 C 424.32923,970.34929 423.73697,969.85275 423.57899,969.5484 C 423.44439,969.28899 423.43577,968.134 423.54359,964.83014 C 423.60638,962.90682 423.76816,956.90122 423.95742,949.46144 C 424.08571,944.42514 424.20717,941.64229 424.67256,933.08069 C 425.03965,926.32763 425.10093,925.05538 425.19812,922.17264 C 425.24045,920.91506 425.292,919.66688 425.31276,919.39878 C 425.33343,919.13078 425.40434,917.9669 425.47033,916.81241 C 425.54917,915.43397 425.62008,914.69431 425.67685,914.65815 C 425.80463,914.57684 428.75463,914.59052 430.01398,914.67833 C 434.8825,915.01784 440.16835,916.39228 444.03047,918.3229 C 449.86627,921.2401 454.14353,926.266 455.4414,931.73122 C 455.83207,933.37615 455.85594,933.61978 455.85634,935.96702 C 455.85674,938.15424 455.85443,938.18771 455.6429,939.00328 C 454.88484,941.92717 453.31315,945.74385 451.5524,948.93673 C 449.48755,952.6807 446.03395,957.48436 443.27863,960.4445 C 439.55272,964.44737 436.39209,966.92846 432.64222,968.79405 C 430.19793,970.01017 428.39666,970.50741 426.21475,970.56834 C 425.24877,970.59531 424.94888,970.57893 424.69683,970.48554 z M 432.44192,966.47008 C 434.94118,965.2216 437.07744,963.56178 440.06755,960.54519 C 444.38583,956.18882 447.60423,951.78002 450.2108,946.65012 C 452.02943,943.07078 453.04766,940.39031 453.45728,938.1036 C 453.63893,937.08945 453.61626,934.76678 453.41245,933.51739 C 452.94776,930.66862 452.02712,928.59517 450.19937,926.28159 C 449.4389,925.31888 447.7615,923.68223 446.69803,922.86535 C 443.82987,920.66235 439.8484,918.85609 435.76934,917.90727 C 434.49023,917.60971 433.71913,917.48095 433.64712,917.55277 C 433.61512,917.58463 433.54722,918.81424 433.49607,920.28528 C 433.40128,923.01339 433.32235,924.59859 432.79558,934.35515 C 432.26108,944.25643 431.95166,952.59449 431.85949,959.58228 C 431.83692,961.29354 431.798,963.61282 431.77293,964.73645 C 431.74775,965.86007 431.74876,966.77933 431.77514,966.77933 C 431.80141,966.77933 432.10151,966.64019 432.44192,966.47008 z M 485.386,988.32224 C 483.61522,988.18909 482.39337,987.88533 481.61696,987.3853 C 480.10405,986.4109 479.30466,985.01389 478.45583,981.86086 L 478.22715,981.01132 L 478.30929,977.07597 C 478.48532,968.64362 479.05161,960.97401 480.4563,947.9996 C 480.63934,946.30901 480.8939,943.8463 481.02198,942.52679 C 481.15007,941.20739 481.45538,938.35661 481.70041,936.19197 C 483.21041,922.85067 483.75664,916.92278 484.14249,909.69027 C 484.33857,906.01314 484.26295,906.45444 484.87517,905.41771 C 486.55047,902.58092 487.96429,901.05735 489.43758,900.50108 C 490.7849,899.99235 492.80131,899.87319 494.46969,900.20351 L 495.39053,900.38591 L 495.93676,900.24007 C 496.40807,900.11422 496.73033,900.09464 498.28857,900.09743 C 500.042,900.10063 500.11352,900.10672 500.76656,900.3074 C 503.53773,901.15913 505.72986,903.53165 506.82473,906.86387 C 507.57617,909.15058 507.80646,911.57794 507.53766,914.37587 C 507.47627,915.01494 507.39393,917.07291 507.35471,918.94899 C 507.31549,920.82507 507.23255,923.15293 507.17046,924.12183 C 507.10828,925.09084 506.98852,927.30053 506.90427,929.03237 C 506.18964,943.72334 504.88996,958.03763 502.87455,973.41412 C 502.12913,979.10168 501.85681,980.83162 501.54739,981.84467 C 501.46505,982.11467 501.21781,982.7066 500.99815,983.16018 C 499.92676,985.37238 498.18767,986.99624 496.0175,987.81092 C 494.83046,988.25651 494.32536,988.32304 492.15699,988.31954 C 491.06042,988.31784 489.94088,988.28139 489.66907,988.23853 C 489.35664,988.18939 489.05233,988.18589 488.8415,988.22904 C 488.4707,988.30496 486.03162,988.37078 485.386,988.32224 z M 487.81193,985.9715 C 489.1101,985.84564 490.1819,985.37478 491.20365,984.48159 C 492.67132,983.19844 493.42016,981.74549 493.8042,979.4355 C 494.30499,976.42341 495.64349,965.69766 496.36594,958.90765 C 497.40674,949.12552 498.27774,937.7483 498.77743,927.40961 C 498.86038,925.69235 498.96158,923.8875 499.0023,923.39875 C 499.04302,922.9099 499.11133,921.21123 499.15416,919.62373 C 499.19688,918.03622 499.28204,915.91672 499.34332,914.91356 C 499.53118,911.83664 499.48946,910.5451 499.14924,908.90316 C 498.88846,907.64459 498.52999,906.75999 497.78949,905.54796 C 496.94978,904.17352 495.75141,903.128 494.46086,902.64395 C 493.79768,902.39523 492.73301,902.29075 491.78087,902.38105 C 489.97468,902.55226 489.21532,903.15297 487.31926,905.91105 L 486.67043,906.85488 L 486.6283,907.44791 C 486.60513,907.77414 486.51837,909.28923 486.43553,910.8148 C 486.07415,917.47406 485.68459,921.57771 483.80558,938.51593 C 481.14866,962.46592 480.92329,965.24697 480.60083,978.06256 C 480.54306,980.35956 480.57846,980.65912 481.08597,982.16012 C 481.57142,983.59589 482.13881,984.59616 482.7029,985.01069 C 483.78282,985.80419 485.74025,986.17237 487.81193,985.9715 z M 229.92281,988.22265 C 228.40197,987.99321 227.30731,987.05617 226.57372,985.3559 C 226.19539,984.47899 225.69229,982.72707 225.63291,982.07921 C 225.60794,981.80782 225.6283,981.07974 225.67795,980.46124 C 225.7277,979.84274 225.7976,978.56079 225.83341,977.61247 C 225.86912,976.66404 225.93712,975.4664 225.98436,974.95098 C 226.0981,973.71188 226.03411,965.62854 225.8975,963.9842 L 225.79921,962.80084 L 225.60764,962.8363 C 225.50232,962.85587 225.17916,962.89283 224.8895,962.9185 C 222.6789,963.11448 216.38042,963.8915 214.80001,964.16309 L 214.34044,964.2421 L 214.28788,965.34206 C 214.25899,965.94707 214.15308,967.5113 214.05238,968.81832 C 213.95178,970.12524 213.83423,972.29888 213.7911,973.64855 C 213.64526,978.21488 213.40625,979.04834 211.76125,980.72614 C 210.77781,981.7292 209.95145,982.33422 208.78948,982.90168 C 207.80826,983.38093 206.9176,983.66631 206.0108,983.79197 C 205.22917,983.90025 203.21626,983.89375 202.43032,983.78038 C 201.60195,983.66082 200.90016,983.66361 200.06246,983.78967 C 199.08555,983.93661 196.53173,983.86079 195.65642,983.65882 C 193.81222,983.2333 192.32418,982.2664 191.17817,980.74911 C 190.4517,979.7872 189.77819,978.1148 189.49184,976.56136 C 189.16757,974.80305 189.112,969.77254 189.37659,966.14215 C 190.10948,956.08774 191.09502,949.16188 192.84785,941.74947 C 194.66105,934.08205 196.85419,927.89186 199.92645,921.7699 C 202.56061,916.52124 205.36728,912.48281 209.46811,908.04094 C 214.30924,902.79718 216.22095,901.00631 219.35981,898.77423 C 221.85073,897.00294 224.66533,895.71799 226.67241,895.43571 C 227.74882,895.28438 229.13476,895.34152 230.34607,895.58704 L 231.21345,895.76284 L 231.92598,895.57665 C 232.56178,895.41054 232.79256,895.39026 234.06797,895.38787 C 236.76511,895.38277 238.68423,895.90768 240.57116,897.16635 C 244.37871,899.70638 246.71889,903.99732 247.83061,910.47748 C 248.41024,913.85566 248.62267,916.35872 248.62468,919.83279 C 248.62568,921.71036 248.71364,923.68083 248.85446,924.98406 C 248.89448,925.35514 248.99267,926.51902 249.07261,927.57043 C 249.5701,934.11921 250.23959,939.73326 250.60749,940.44215 C 250.66827,940.55942 250.89906,940.86328 251.12012,941.11729 C 251.34128,941.3714 251.59293,941.69124 251.67939,941.82818 C 251.76584,941.96503 252.19021,942.59991 252.6224,943.23899 C 253.81405,945.00139 254.75084,946.98744 254.95295,948.18029 C 255.06007,948.81258 255.0379,950.2029 254.90761,951.02048 C 254.55797,953.21389 253.89479,954.48795 252.25691,956.11301 L 251.55993,956.80453 L 251.39062,957.76234 C 251.23426,958.64694 251.22172,958.93521 251.22674,961.53147 C 251.22974,963.07772 251.27137,964.8658 251.31921,965.50488 C 251.47638,967.6042 251.59333,972.60324 251.49885,973.18927 C 251.45231,973.47785 251.3137,974.42248 251.19073,975.2884 C 250.51872,980.02194 250.2101,981.30538 249.30591,983.12862 C 248.71404,984.32227 248.25768,984.98382 247.49721,985.75095 C 246.17516,987.08464 245.15372,987.63781 243.1322,988.11517 C 242.62077,988.23594 242.01015,988.24952 236.43783,988.26431 C 233.06548,988.27319 230.13373,988.25442 229.92281,988.22265 z M 235.45982,985.9696 C 237.58485,985.74875 239.03749,984.99011 240.283,983.45096 C 240.80686,982.80349 241.07105,982.36658 241.46202,981.50116 C 242.17344,979.92625 242.42719,978.85136 242.9996,974.98854 L 243.32176,972.8144 L 243.31725,970.67782 C 243.31484,969.50265 243.27282,967.73145 243.22397,966.74187 C 243.17513,965.75229 243.11344,963.49195 243.08696,961.71896 L 243.03892,958.49531 L 243.28285,956.98762 L 243.52677,955.47993 L 244.24361,954.89089 C 245.00608,954.2643 245.70897,953.50366 246.01699,952.97177 C 246.24878,952.57142 246.54326,951.64457 246.71839,950.76397 C 246.91127,949.79406 246.89432,948.12036 246.68378,947.34554 C 246.46553,946.54275 246.1221,945.7878 245.63415,945.03825 C 245.04981,944.14077 244.80027,943.8427 243.81433,942.86421 C 242.92819,941.98471 242.56501,941.4572 242.38738,940.79146 C 242.28557,940.40989 241.98086,938.02069 241.48519,933.71797 C 241.08018,930.20185 240.90907,928.3931 240.83615,926.85823 C 240.81067,926.32224 240.76002,925.69815 240.72361,925.4713 C 240.61188,924.77679 240.50637,922.58757 240.42392,919.24885 C 240.33606,915.69637 240.23115,914.24951 239.89384,911.93943 C 239.3094,907.93706 238.47702,905.43779 236.86009,902.83064 C 236.0924,901.59274 234.47518,899.91444 233.25384,899.08808 C 231.14886,897.66389 227.88533,897.26594 225.34094,898.12317 C 222.75834,898.99328 219.15259,901.55938 215.57201,905.0754 C 213.93774,906.68018 210.907,909.83481 209.80592,911.0772 C 207.92771,913.1966 205.98101,915.83182 204.48936,918.27425 C 203.03653,920.65316 200.86114,925.05847 199.54722,928.28272 C 196.75038,935.14575 194.77339,942.29795 193.48575,950.21119 C 192.63321,955.45086 191.76482,963.92926 191.58919,968.72853 C 191.3578,975.05286 191.84315,977.83901 193.48755,979.62728 C 194.4424,980.66561 195.37438,981.19491 196.67686,981.43843 C 197.65879,981.62193 199.89827,981.56 200.70187,981.32706 C 201.4512,981.10991 202.50494,980.5866 203.11326,980.12972 C 203.77894,979.62958 204.68073,978.67626 204.97832,978.15795 C 205.41432,977.39861 205.41643,977.37803 205.67058,971.50238 C 205.75814,969.47878 205.79766,968.94808 206.0784,966.017 C 206.36877,962.98713 206.53687,962.3064 207.04729,962.09394 C 207.47837,961.91444 211.74821,961.30453 215.14674,960.93705 C 219.47876,960.46858 225.81476,960.17381 227.52987,960.361 L 228.13899,960.42742 L 228.18954,962.04779 C 228.21732,962.93898 228.27188,964.52838 228.3108,965.57989 C 228.39796,967.93762 228.39786,974.22161 228.3106,975.13847 C 228.27519,975.50955 228.211,976.65435 228.16777,977.68249 C 228.12454,978.71062 228.05233,979.90817 228.00729,980.34387 C 227.90278,981.35303 227.96166,981.89082 228.28943,982.92245 C 228.75462,984.3863 229.2513,985.23394 229.81027,985.51811 C 230.18328,985.7077 230.93924,985.89998 231.58526,985.9694 C 232.37201,986.05411 234.64599,986.05421 235.45982,985.9696 z M 210.59517,948.41163 C 209.08426,948.28118 208.87985,947.80312 209.44133,945.71299 C 210.65124,941.20928 214.17434,932.85484 217.00418,927.77909 C 219.33854,923.59213 221.7385,920.34261 223.45241,919.04808 C 224.29723,918.4101 225.66882,917.91806 226.04434,918.11833 C 226.52778,918.37614 226.93329,921.03163 227.14452,925.32137 C 227.42074,930.93032 227.54973,941.60594 227.35064,942.37686 C 227.29728,942.58353 227.22616,943.53925 227.19206,944.50665 C 227.12256,946.48201 227.19688,946.26676 226.42808,946.71945 C 224.77074,947.69504 221.89416,948.23193 217.36616,948.41063 C 215.29378,948.49254 211.53718,948.49304 210.59517,948.41163 z M 219.17175,946.04801 C 222.21923,945.77891 223.22192,945.6083 224.5207,945.13824 L 224.82892,945.02666 L 224.88187,943.92671 C 224.91096,943.32169 224.97054,942.65804 225.01427,942.45188 C 225.10715,942.01427 225.19581,929.69382 225.11477,928.48889 C 225.08087,927.98486 225.03603,927.73714 224.98448,927.7689 C 224.73604,927.92183 221.7737,934.34725 220.5653,937.35395 C 219.35369,940.36884 217.53185,945.86981 217.67077,946.09385 C 217.72433,946.18016 217.64981,946.18245 219.17175,946.04801 z M 543.05255,988.1778 C 537.92346,987.63741 531.9355,986.17487 527.32867,984.33725 C 523.25342,982.71159 520.08969,981.01132 517.28502,978.93936 C 513.97345,976.49293 511.35283,973.49922 510.02297,970.64356 C 508.99069,968.42677 508.50143,965.59607 508.70714,963.03088 C 509.01616,959.17704 510.27231,956.62073 512.61439,955.07998 C 514.26421,953.99461 516.98403,953.42315 519.61728,953.60864 C 520.13452,953.645 521.2009,953.66388 521.98715,953.6505 C 524.25671,953.61194 525.9286,953.62473 527.64432,953.69375 L 529.23897,953.75798 L 530.31167,954.91666 C 532.94922,957.76554 536.75688,961.10096 539.29084,962.78226 C 541.20063,964.04942 543.51343,965.19443 545.57287,965.89214 C 546.34688,966.15444 547.89038,966.56248 548.9377,966.78173 L 549.7071,966.94275 L 550.74339,966.74527 C 555.74661,965.79185 562.24208,963.46429 566.14923,961.22452 C 568.26273,960.01309 570.4308,958.38753 571.41844,957.27409 C 572.9467,955.55095 573.44087,953.96065 572.89224,952.53126 C 572.57078,951.69351 571.37812,950.51535 569.95729,949.63165 C 568.34588,948.62938 567.09224,948.11447 564.79509,947.51115 C 563.3219,947.12419 562.87767,947.07245 538.42566,944.43823 C 533.812,943.94119 529.51239,943.45234 528.87097,943.35196 C 523.60998,942.52819 519.48197,940.39021 516.83197,937.11652 C 515.43691,935.39317 514.62128,933.63446 514.23031,931.50637 C 514.03884,930.46435 514.03834,927.94071 514.22941,926.82078 C 514.86872,923.07412 516.78674,919.79673 520.62869,915.88596 C 523.32865,913.13777 526.66861,910.50515 530.41327,908.17369 C 535.20044,905.19316 541.45539,902.12684 546.8895,900.09654 C 553.11436,897.77087 559.87723,896.03813 564.72749,895.52641 C 566.6094,895.32784 567.06857,895.31485 568.74968,895.41234 C 570.09259,895.49025 570.77984,895.49065 572.3424,895.41444 C 574.49622,895.30946 575.27675,895.355 576.79618,895.67454 C 578.59244,896.05221 581.39219,897.17355 583.07681,898.18999 C 584.20427,898.87032 586.47404,900.69106 587.2652,901.54979 C 588.69546,903.10233 590.01731,905.28576 590.59744,907.05426 C 590.98941,908.2492 591.11618,909.12002 591.11769,910.62741 C 591.11969,912.70406 590.8215,914.11346 590.06284,915.61257 C 588.8735,917.96291 587.30131,919.07155 584.46866,919.5573 C 583.77028,919.67707 581.05328,919.68386 580.22139,919.56789 C 579.77376,919.50556 579.5179,919.50656 579.20577,919.57188 C 578.95111,919.62522 578.12875,919.65599 577.09577,919.65099 C 575.23864,919.6419 574.22923,919.53183 573.03316,919.208 C 572.64009,919.10152 571.06579,918.69378 569.53473,918.30182 C 566.39185,917.49713 566.81552,917.529 564.8327,917.94842 C 560.42937,918.87997 556.84809,920.36249 552.30625,923.13385 C 551.13776,923.84684 548.94131,925.32937 548.98665,925.37451 C 549.0025,925.3904 552.76913,925.60335 557.35671,925.84768 C 566.9107,926.3565 568.62782,926.46907 569.98617,926.67534 C 576.033,927.5935 582.22367,929.59474 586.53753,932.02588 C 589.90788,933.92523 592.68215,936.05782 594.5417,938.17862 C 597.7626,941.85226 599.21473,944.78863 599.86176,948.93673 C 600.04521,950.1123 600.04641,952.67201 599.86407,953.88463 C 599.07823,959.11351 597.38939,963.20698 594.14512,967.74644 C 591.97464,970.7834 589.01462,973.86551 585.86091,976.37207 C 578.63597,982.11447 569.10364,986.31481 560.0706,987.7363 C 556.85301,988.24263 556.86183,988.24223 550.16216,988.26231 C 545.37959,988.27669 543.81543,988.25811 543.05255,988.1778 z M 548.50702,985.9721 C 554.43931,985.74945 560.3365,984.34914 566.75112,981.63991 C 577.76407,976.98857 586.66521,968.74351 590.09955,960.01259 C 592.00313,955.17307 592.34374,950.32396 591.05259,946.44296 C 589.07289,940.4917 583.16026,935.08861 575.21486,931.96985 C 572.76506,931.00823 568.91879,929.93515 565.66027,929.30416 C 563.21187,928.83 561.82042,928.70574 554.22477,928.28282 C 545.55682,927.80017 540.1825,927.49072 539.21561,927.4186 C 538.106,927.33589 537.31775,927.21453 537.25747,927.11724 C 537.21585,927.05022 538.20239,926.19638 539.53757,925.14397 C 543.95645,921.66062 549.35204,918.5006 553.54765,916.93847 C 557.06905,915.62745 560.87701,914.95162 564.75748,914.94912 C 566.46517,914.94792 566.81812,915.01604 569.73252,915.90823 C 571.99887,916.60215 573.4495,917.01478 574.07306,917.14303 C 575.3264,917.40094 577.8767,917.38526 578.93897,917.11317 C 581.36169,916.49267 582.8039,914.3436 582.93639,911.15691 C 583.0415,908.62578 582.4367,906.71284 580.78969,904.3675 C 578.75552,901.47078 574.86021,898.9796 570.82427,897.99422 C 569.30434,897.62314 566.677,897.58268 564.1932,897.89213 C 557.3546,898.74397 548.02087,901.65467 540.08079,905.41142 C 534.17779,908.20446 530.59391,910.30877 526.68927,913.27441 C 524.00386,915.31401 521.32016,917.94063 519.65098,920.16282 C 518.19183,922.10542 517.03458,924.5062 516.65053,926.38717 C 516.35535,927.83283 516.31844,930.00167 516.56698,931.28762 C 516.93989,933.21623 517.76255,934.6645 519.42019,936.31033 C 521.74272,938.61622 524.889,940.20892 528.58753,940.95098 C 529.23466,941.08073 534.98149,941.7264 546.30505,942.94142 C 555.52284,943.9305 563.33233,944.79343 563.65951,944.85885 C 564.42429,945.01198 565.92015,945.45947 567.10137,945.88859 C 570.11576,946.98345 572.39917,948.40424 573.91057,950.12539 C 575.2944,951.7013 575.71415,953.26304 575.24134,955.07638 C 574.76733,956.89422 572.25464,959.57659 569.00816,961.73025 C 564.20102,964.91914 556.69484,967.88748 550.3126,969.12328 C 549.07311,969.36331 549.06759,969.36371 546.62611,969.3647 C 544.42786,969.3657 544.07149,969.34822 543.09598,969.192 C 540.4525,968.76848 538.04903,967.96139 535.34106,966.58785 C 531.41204,964.59501 528.73396,962.53604 524.3194,958.11394 L 522.28804,956.07915 L 521.12197,956.0291 C 520.48055,956.00154 519.71888,955.9424 519.42922,955.89765 C 518.21971,955.71096 515.98434,956.09992 514.78065,956.70654 C 513.57165,957.31585 512.65502,958.2447 512.02183,959.50227 C 511.21191,961.11075 510.85746,963.15204 511.03067,965.21111 C 511.33057,968.77867 512.44539,971.21891 514.9969,973.89288 C 517.48693,976.50252 520.97262,978.97662 524.65791,980.75021 C 529.4488,983.056 535.52902,984.83479 541.32219,985.62549 C 544.21081,986.01985 545.53415,986.08357 548.50702,985.9721 z "
         style="fill:black"
         id="TextOutline" />
    </g>
  </g>
</svg>
